<svg version="1.1" id="Layer_1" xmlns="http://www.w3.org/2000/svg" xmlns:xlink="http://www.w3.org/1999/xlink" x="0px" y="0px"
	 width="100%" viewBox="0 0 1024 635" enable-background="new 0 0 1024 635" xml:space="preserve">
<path fill="#F0DE3E" opacity="1.000000" stroke="none" 
	d="
M670.000000,636.000000 
	C446.666748,636.000000 223.833466,636.000000 1.000149,636.000000 
	C1.000100,424.333466 1.000100,212.666931 1.000050,1.000291 
	C342.333099,1.000194 683.666199,1.000194 1024.999512,1.000097 
	C1024.999634,212.666382 1024.999634,424.332764 1024.999756,635.999573 
	C906.833313,636.000000 788.666687,636.000000 670.000000,636.000000 
M812.025269,358.009216 
	C812.025269,358.009216 812.011536,357.935333 812.518372,357.652954 
	C812.751038,357.130951 812.983704,356.608948 813.115662,356.099457 
	C813.115662,356.099457 813.138611,356.198303 813.571472,355.964905 
	C813.824463,355.712280 813.918884,355.410095 814.130981,354.723724 
	C814.130981,354.723724 814.210022,354.296967 814.722229,353.864807 
	C814.889893,353.219543 815.057556,352.574280 815.339783,351.823120 
	C815.339783,351.823120 815.254944,351.692139 815.765198,351.206573 
	C816.169800,349.158081 816.574341,347.109589 817.197388,344.435577 
	C817.173462,343.781036 817.149536,343.126495 817.470032,341.865356 
	C817.357483,340.744965 817.244995,339.624573 817.342773,338.036865 
	C817.266724,337.711273 817.190674,337.385651 817.283752,336.510498 
	C817.117371,335.367035 816.950928,334.223572 816.742126,332.292847 
	C816.513245,331.824646 816.284302,331.356445 816.130066,330.339355 
	C815.824036,329.686127 815.518005,329.032898 815.274963,328.151825 
	C815.274963,328.151825 815.085510,328.010468 815.071228,327.350250 
	C814.509705,326.433960 813.948242,325.517670 813.463989,324.679993 
	C813.463989,324.679993 813.527588,324.589966 813.334534,323.989502 
	C812.562805,323.033051 811.791077,322.076599 811.042480,320.991302 
	C811.042480,320.991302 810.914185,320.965424 810.823364,320.493286 
	C810.638733,320.199371 810.373657,320.035858 810.019775,319.980682 
	C810.019775,319.980682 809.997437,319.973450 809.806213,319.418365 
	C809.193970,318.964355 808.581665,318.510376 807.987183,317.996979 
	C807.987183,317.996979 807.937073,318.033539 807.663635,317.507446 
	C807.145752,317.240295 806.627808,316.973145 806.135437,316.827026 
	C806.135437,316.827026 806.252380,316.786774 805.918762,316.234955 
	C804.977478,315.749176 804.036133,315.263397 803.102722,314.863892 
	C803.102722,314.863892 803.187134,314.844238 802.739807,314.302490 
	C801.187195,313.760651 799.634521,313.218811 798.112610,312.798645 
	C798.112610,312.798645 798.229309,312.752533 797.773438,312.250397 
	C795.525696,311.833252 793.277954,311.416107 790.555054,310.787048 
	C790.213745,310.800354 789.872437,310.813660 789.274170,310.429596 
	C789.274170,310.429596 788.989746,310.051392 788.339905,309.532349 
	C780.948120,309.335632 773.556885,309.057281 766.164062,309.003754 
	C764.472351,308.991516 762.775146,309.754028 761.110596,310.650665 
	C761.110596,310.650665 761.283875,311.110840 761.093140,311.118713 
	C761.093140,311.118713 760.905945,311.081451 760.440979,311.742432 
	C760.302002,312.555634 760.042603,313.368713 760.041748,314.182068 
	C760.017090,337.476654 760.005066,360.771301 760.051147,384.065826 
	C760.053772,385.339142 760.575012,386.611420 761.298340,388.611328 
	C764.226440,388.446106 767.154480,388.280884 770.895752,388.029297 
	C776.043518,389.132568 777.037537,385.936798 777.115417,381.928070 
	C777.188416,378.171265 777.131104,374.411896 777.131104,370.051025 
	C780.653625,370.051025 783.603516,370.255371 786.516418,370.013397 
	C795.942078,369.230408 804.817810,367.080292 811.532715,358.900665 
	C811.672363,358.608704 811.812073,358.316742 812.025269,358.009216 
M614.738037,355.105896 
	C614.928650,354.786835 615.119263,354.467773 615.134216,354.150482 
	C615.134216,354.150482 615.155334,354.324860 615.726501,354.157959 
	C616.176453,353.786377 616.626404,353.414795 617.020508,353.007660 
	C617.020508,353.007660 617.017334,353.073730 617.938416,352.982239 
	C621.262329,353.103058 624.586182,353.223877 627.883240,353.115570 
	C627.883240,353.115570 627.656494,353.158020 627.869385,353.717163 
	C628.209961,353.910004 628.550476,354.102875 628.883789,354.105835 
	C628.883789,354.105835 628.695068,354.128265 628.993042,354.927673 
	C629.557007,357.982361 630.517273,361.025391 630.607544,364.094025 
	C630.839233,371.976227 630.684937,379.869843 630.684937,387.721985 
	C636.198181,387.721985 640.935791,387.721985 645.887024,387.721985 
	C645.887024,376.818176 646.062073,366.219940 645.763916,355.635101 
	C645.689453,352.989227 644.090942,350.386322 643.144104,347.903015 
	C643.144104,347.903015 643.288086,347.935638 643.192932,347.262878 
	C642.521057,346.397705 641.849182,345.532532 641.158752,344.854584 
	C641.158752,344.854584 641.346924,344.852142 641.184387,344.282867 
	C640.884827,344.042175 640.585205,343.801514 640.358398,343.639954 
	C640.358398,343.639954 640.413330,343.547546 640.074646,342.982361 
	C634.267761,337.859863 627.822021,336.634186 620.251282,339.815338 
	C620.251282,339.815338 619.940002,340.075165 619.281189,340.137085 
	C617.810547,341.407593 616.339905,342.678101 614.944580,343.947052 
	C614.944580,343.947052 614.916748,343.877045 614.028748,344.203979 
	C613.543152,342.678345 612.655334,341.157501 612.637085,339.626312 
	C612.518677,329.701172 612.656311,319.772919 612.527222,309.848022 
	C612.507690,308.349609 611.533813,306.863556 610.089661,305.204285 
	C606.066345,305.270355 602.043091,305.336426 597.643005,305.223785 
	C597.643005,305.223785 597.232727,305.149536 596.656250,305.718384 
	C596.443237,307.004150 596.046326,308.289673 596.044373,309.575745 
	C596.008057,333.931458 596.004211,358.287201 596.054626,382.642853 
	C596.057617,384.075592 596.575928,385.507263 597.010742,387.407349 
	C597.010742,387.407349 597.079712,387.895874 597.304382,388.647736 
	C601.955566,390.982025 609.902161,390.497101 612.603455,386.813843 
	C612.807617,376.885864 613.011719,366.957916 613.095154,357.066406 
	C613.095154,357.066406 613.141968,357.183441 613.636047,356.829407 
	C613.879456,356.276154 614.122925,355.722900 614.200500,355.159546 
	C614.200500,355.159546 614.215149,355.325073 614.738037,355.105896 
M699.537292,340.494080 
	C699.390564,341.045868 699.243774,341.597687 699.071533,342.059723 
	C699.071533,342.059723 699.162842,342.040436 698.487915,342.396118 
	C698.038208,343.797455 697.588562,345.198822 697.199463,346.864532 
	C697.199463,346.864532 696.990173,347.037079 696.561829,347.433044 
	C696.396484,347.983643 696.231079,348.534210 695.998779,349.020142 
	C695.998779,349.020142 696.081604,349.062134 695.363220,349.260101 
	C694.994263,350.618683 694.625305,351.977264 694.202515,353.776245 
	C694.202515,353.776245 693.925781,354.123108 693.260193,354.293732 
	C692.896118,355.567749 692.531982,356.841797 692.039490,358.094025 
	C692.039490,358.094025 692.158875,358.146729 691.494629,358.453461 
	C691.079895,359.795258 690.665100,361.137024 690.225159,362.843842 
	C690.225159,362.843842 689.963013,363.099091 689.317810,363.214752 
	C686.044495,365.323914 684.839111,368.196930 686.113892,372.068329 
	C686.113892,372.068329 686.023254,372.108490 685.565979,372.473480 
	C685.418152,373.031433 685.270325,373.589355 685.094421,374.070740 
	C685.094421,374.070740 685.173462,374.050568 684.690369,374.452087 
	C684.542114,375.042542 684.393860,375.633026 684.214539,376.135864 
	C684.214539,376.135864 684.306519,376.122070 683.739014,376.559814 
	C683.550598,377.233154 683.362183,377.906494 683.215942,378.876495 
	C683.215942,378.876495 682.991211,379.074738 682.561523,379.462982 
	C682.403259,380.012451 682.244995,380.561920 682.020142,381.027374 
	C682.020142,381.027374 682.112854,381.081268 681.434631,381.209930 
	C680.484680,383.338715 679.534668,385.467529 678.584717,387.596313 
	C680.787048,388.383057 682.936951,389.452026 685.207092,389.873718 
	C687.297302,390.262054 689.710938,390.497711 691.628601,389.811951 
	C693.873779,389.009033 696.882629,387.534424 697.536743,385.649139 
	C699.102356,381.136749 701.814575,379.720917 706.171204,379.953400 
	C709.157043,380.112732 712.160583,380.062317 715.151978,379.969177 
	C722.126770,379.752045 729.164795,379.288879 733.136169,387.835022 
	C735.303040,389.705627 748.210754,391.002319 750.376038,389.408539 
	C751.036743,388.922241 751.792419,387.542206 751.547302,387.026947 
	C750.551697,384.934357 749.183838,383.018860 748.004395,381.012360 
	C748.004395,381.012360 747.958313,381.050690 747.900574,380.477295 
	C747.610840,379.999176 747.321045,379.521057 746.814575,378.862915 
	C746.814575,378.862915 746.861572,378.585144 746.907227,377.792999 
	C746.194641,376.556854 745.482056,375.320709 744.261475,373.602997 
	C741.429016,367.145416 738.596497,360.687836 735.873718,353.413910 
	C734.485596,350.706665 733.097473,347.999390 731.780701,345.256042 
	C731.780701,345.256042 731.704468,345.232208 731.840210,344.471863 
	C731.178467,343.364075 730.516785,342.256287 729.989868,341.095856 
	C729.989868,341.095856 729.852051,341.128571 729.925110,340.389618 
	C729.289001,339.274872 728.652954,338.160126 727.937378,337.009796 
	C727.937378,337.009796 727.968933,336.928619 727.986816,336.139374 
	C726.632507,333.435059 725.278259,330.730774 723.990479,328.025757 
	C723.990479,328.025757 723.958618,328.084198 723.989197,327.285370 
	C723.218323,325.945923 722.447510,324.606445 721.662964,323.155823 
	C721.662964,323.155823 721.717346,323.253662 721.852112,322.486328 
	C721.184082,321.358459 720.516113,320.230621 719.939331,319.054108 
	C719.939331,319.054108 719.887878,319.143799 719.858093,318.532074 
	C719.543335,318.030762 719.228516,317.529449 718.983948,317.026184 
	C718.983948,317.026184 718.941223,317.081940 718.966858,316.286255 
	C717.928589,314.277069 716.890320,312.267853 715.361877,310.058807 
	C714.901794,309.813782 714.441711,309.568756 713.753357,309.049316 
	C713.561523,309.384888 713.369751,309.720459 713.195068,310.147919 
	C713.195068,310.147919 713.107788,310.181396 712.640991,310.517731 
	C712.500488,311.065155 712.359985,311.612610 712.187012,312.186401 
	C712.187012,312.186401 712.199890,312.226166 711.479309,312.329407 
	C711.004517,313.901001 710.529724,315.472565 710.000000,317.003662 
	C710.000000,317.003662 710.053284,317.049408 709.581543,317.429779 
	C709.417358,318.000671 709.253174,318.571594 709.064575,319.043976 
	C709.064575,319.043976 709.164307,319.024963 708.518799,319.352081 
	C707.717957,321.604614 706.917175,323.857147 706.024414,326.011261 
	C706.024414,326.011261 706.135986,326.086761 705.642944,326.457886 
	C705.478760,327.039215 705.314514,327.620544 705.127136,328.091034 
	C705.127136,328.091034 705.239685,328.078552 704.568848,328.360077 
	C703.440186,331.379761 702.311523,334.399445 701.182617,337.799835 
	C701.182617,337.799835 700.945190,338.097473 700.551575,338.433929 
	C700.400208,338.913605 700.248840,339.393280 700.158997,340.053650 
	C700.158997,340.053650 699.984619,340.131195 699.537292,340.494080 
M844.515747,308.667847 
	C840.258118,308.797913 836.000488,308.927979 831.121765,309.429352 
	C830.447876,311.497253 829.202759,313.561188 829.188538,315.633636 
	C829.045471,336.455444 829.058655,357.278809 829.122986,378.101410 
	C829.164001,391.372955 827.439453,389.937378 841.278320,389.752686 
	C843.287842,389.725891 845.272522,387.834198 847.643982,386.130859 
	C847.748047,385.477966 847.942627,384.825134 847.943054,384.172180 
	C847.958374,360.899292 847.964539,337.626373 847.927856,314.353516 
	C847.926086,313.227234 847.525330,312.101593 847.062683,310.425079 
	C846.441772,310.006287 845.820801,309.587524 844.515747,308.667847 
M177.567459,233.673294 
	C177.377823,235.305359 177.023331,236.937317 177.022430,238.569489 
	C176.993423,291.626160 176.988602,344.682831 177.041977,397.739471 
	C177.043732,399.485718 177.688492,401.231354 178.400116,403.022736 
	C178.400116,403.022736 178.769516,403.019501 179.003098,403.448364 
	C179.003098,403.448364 179.183884,403.902039 179.754761,404.463043 
	C181.217331,404.651245 182.679810,405.003143 184.142487,405.003967 
	C237.840820,405.034943 291.539154,405.043304 345.237457,404.986023 
	C346.780121,404.984375 348.322021,404.239319 349.970032,403.412415 
	C349.970032,403.412415 350.168762,403.018341 350.735504,402.757111 
	C350.895081,402.478851 351.194672,402.200500 351.194489,401.922333 
	C351.160645,347.367340 351.115173,292.812347 351.007233,238.257477 
	C351.003784,236.514389 350.351013,234.772583 349.999756,233.009552 
	C349.999756,233.009552 349.988220,233.004333 350.123718,232.390182 
	C348.747375,231.925781 347.371582,231.057007 345.994659,231.055267 
	C291.961273,230.987061 237.927811,230.984344 183.894470,231.062729 
	C182.262268,231.065094 180.631439,232.022720 178.556732,232.807709 
	C178.400574,232.881744 178.244415,232.955765 177.567459,233.673294 
M379.211670,311.217957 
	C379.133728,314.070343 378.991150,316.922638 378.988190,319.775085 
	C378.966980,340.236847 378.950470,360.698639 379.010834,381.160217 
	C379.016541,383.090881 379.562042,385.019989 380.106934,387.415314 
	C380.410126,387.542725 380.713287,387.670135 381.931915,387.985870 
	C386.519165,387.985870 391.106384,387.985870 395.973938,387.985870 
	C395.973938,380.003723 395.973938,372.580688 396.333893,364.732513 
	C396.608459,364.482819 396.883057,364.233124 398.047974,364.136536 
	C407.644989,364.136536 417.241974,364.136536 426.841003,364.136536 
	C426.841003,359.061951 426.841003,354.678680 426.841003,349.848572 
	C416.534668,349.848572 406.607971,349.848572 395.982605,349.848572 
	C395.982605,341.288788 395.982605,333.175354 396.585419,324.453308 
	C407.730225,324.453308 418.875031,324.453308 429.919464,324.453308 
	C430.325623,319.100708 430.646790,314.868225 430.439362,309.939972 
	C429.192902,309.609741 427.947815,308.998413 426.699768,308.992310 
	C412.732239,308.923737 398.764191,308.924957 384.796600,308.987640 
	C383.530151,308.993317 382.266235,309.555908 380.527618,310.126831 
	C380.308624,310.408661 380.089630,310.690491 379.211670,311.217957 
M503.087372,338.976776 
	C501.108948,339.083801 499.130493,339.190826 496.950928,339.308716 
	C496.950928,343.555603 496.950928,347.614258 496.950928,351.740997 
	C499.365326,351.960205 501.448212,352.149323 503.960297,352.377380 
	C503.960297,359.508270 503.665894,366.325165 504.044159,373.104584 
	C504.413391,379.722595 506.612701,385.788239 513.680847,388.009674 
	C520.923279,390.285828 527.959717,389.759521 534.393311,384.626007 
	C532.303772,380.910065 530.461060,377.633179 528.659668,374.429688 
	C522.230652,376.817169 519.766052,376.411255 519.482727,372.472198 
	C518.999817,365.761139 519.349609,358.990143 519.349609,351.872681 
	C523.634155,351.872681 527.408752,351.872681 531.323792,351.872681 
	C531.323792,347.457153 531.323792,343.431061 531.323792,339.751709 
	C526.869812,339.097931 522.882751,338.512695 519.056824,337.015594 
	C519.056824,329.431030 519.056824,321.846497 519.056824,314.146118 
	C513.722351,314.146118 509.005249,314.146118 503.931793,314.146118 
	C503.931793,322.572906 503.931793,330.680054 503.087372,338.976776 
M484.865356,347.612640 
	C484.606628,347.393005 484.347870,347.173340 483.868469,346.364166 
	C482.939178,345.549194 482.009888,344.734222 480.740601,343.329132 
	C467.865784,334.663147 450.337891,337.195282 441.963501,348.930939 
	C434.359100,359.587585 436.452515,375.097961 446.564270,383.018921 
	C457.663910,391.713654 478.408203,390.909668 486.509308,381.302612 
	C483.821045,378.438843 481.116058,375.557251 478.329254,372.588501 
	C476.738739,373.309753 475.426453,373.997437 474.049622,374.512817 
	C468.736969,376.501495 463.303070,377.170837 458.157440,374.357361 
	C455.957672,373.154572 452.794617,371.736023 455.658508,368.127747 
	C467.046478,368.127747 478.434448,368.127747 490.104126,368.127747 
	C490.513184,360.568298 489.553650,353.899139 484.865356,347.612640 
M576.006104,372.012482 
	C573.486938,373.189178 571.074280,374.885559 568.425232,375.428619 
	C563.684387,376.400452 559.273376,373.756012 557.396057,369.563324 
	C555.063965,364.354950 556.139954,357.584473 559.830383,354.246063 
	C563.049866,351.333618 568.896667,350.867493 572.908508,353.316833 
	C574.285828,354.157776 575.497375,355.270233 577.047119,356.460144 
	C580.583862,353.575989 583.997742,350.791992 587.394104,348.022308 
	C580.286682,338.789673 568.810059,335.791870 557.346008,339.768738 
	C546.721802,343.454285 540.242920,352.613617 540.419983,363.697449 
	C540.606506,375.377197 547.439209,384.480164 558.530518,387.825531 
	C569.457397,391.121307 581.208496,387.897736 587.130432,379.566162 
	C583.635620,376.942963 580.117371,374.302216 576.006104,372.012482 
z"/>
<path fill="#33352B" opacity="1.000000" stroke="none" 
	d="
M814.210022,354.296967 
	C814.210022,354.296967 814.130981,354.723724 813.810547,355.035461 
	C813.277527,355.591461 813.160339,355.875153 813.138611,356.198303 
	C813.138611,356.198303 813.115662,356.099457 812.915649,356.244751 
	C812.480896,356.905121 812.246216,357.420227 812.011536,357.935333 
	C812.011536,357.935333 812.025269,358.009216 811.790771,358.150452 
	C811.315247,358.515137 811.154358,358.786102 811.073486,359.104614 
	C804.817810,367.080292 795.942078,369.230408 786.516418,370.013397 
	C783.603516,370.255371 780.653625,370.051025 777.131104,370.051025 
	C777.131104,374.411896 777.188416,378.171265 777.115417,381.928070 
	C777.037537,385.936798 776.043518,389.132568 770.182739,387.811462 
	C766.736389,387.329651 764.002991,387.065674 761.210754,386.503204 
	C761.198120,385.804169 761.244385,385.403595 761.473633,384.634644 
	C761.769287,383.445831 761.979797,382.625519 761.980469,381.805023 
	C761.998108,360.160492 762.006104,338.515900 761.963684,316.871460 
	C761.961121,315.579102 761.525757,314.287628 761.217163,312.677307 
	C761.063721,311.933075 760.984863,311.507263 760.905945,311.081451 
	C760.905945,311.081451 761.093140,311.118713 761.638672,311.104584 
	C771.299866,311.002625 780.415527,310.914795 789.531128,310.826965 
	C789.872437,310.813660 790.213745,310.800354 791.069458,311.126587 
	C793.798950,311.894928 796.014160,312.323730 798.229309,312.752533 
	C798.229309,312.752533 798.112610,312.798645 798.302551,313.030701 
	C800.057373,313.789917 801.622253,314.317078 803.187134,314.844238 
	C803.187134,314.844238 803.102722,314.863892 803.230408,315.137451 
	C804.322876,315.869568 805.287598,316.328156 806.252380,316.786743 
	C806.252380,316.786774 806.135437,316.827026 806.260010,317.034851 
	C806.902039,317.506317 807.419556,317.769928 807.937073,318.033539 
	C807.937073,318.033539 807.987183,317.996979 808.047974,318.326477 
	C808.738281,319.095154 809.367859,319.534302 809.997437,319.973450 
	C809.997437,319.973450 810.019775,319.980682 810.123291,320.192627 
	C810.401672,320.657959 810.630798,320.844940 810.914185,320.965424 
	C810.914185,320.965424 811.042480,320.991302 811.033630,321.403046 
	C811.859070,322.739838 812.693298,323.664917 813.527588,324.589966 
	C813.527588,324.589966 813.463989,324.679993 813.427734,324.978058 
	C813.956177,326.187561 814.520813,327.099030 815.085510,328.010468 
	C815.085510,328.010468 815.274963,328.151825 815.200439,328.556396 
	C815.435730,329.603424 815.745544,330.245850 816.055359,330.888275 
	C816.284302,331.356445 816.513245,331.824646 816.581177,332.945068 
	C816.651672,334.751526 816.883118,335.905792 817.114624,337.060059 
	C817.190674,337.385651 817.266724,337.711273 817.184998,338.767029 
	C817.059998,340.488800 817.092834,341.480377 817.125610,342.471954 
	C817.149536,343.126495 817.173462,343.781036 816.845093,345.026001 
	C816.080200,347.641632 815.667542,349.666901 815.254944,351.692139 
	C815.254944,351.692139 815.339783,351.823120 815.026978,352.103851 
	C814.546143,353.022034 814.378052,353.659515 814.210022,354.296967 
M776.457886,325.775177 
	C776.307007,330.571777 775.976868,335.371307 776.054932,340.164154 
	C776.135132,345.081299 776.614441,349.991943 777.393127,355.635925 
	C781.034241,355.669250 784.733765,356.129395 788.303284,355.640320 
	C794.314331,354.816620 799.165466,351.863983 800.473145,345.457703 
	C801.736023,339.270447 801.988220,332.769226 796.542297,328.342560 
	C790.840942,323.708374 784.034668,322.810944 776.457886,325.775177 
z"/>
<path fill="#34352A" opacity="1.000000" stroke="none" 
	d="
M746.861572,378.585144 
	C746.861572,378.585144 746.814575,378.862915 746.932556,379.241699 
	C747.353088,380.097229 747.655701,380.573975 747.958313,381.050720 
	C747.958313,381.050690 748.004395,381.012360 748.018433,381.428284 
	C748.416138,383.366425 748.799744,384.888611 749.303650,386.888367 
	C744.281006,387.237091 739.668335,387.557343 734.991821,387.569519 
	C734.277649,386.472656 733.627258,385.683838 732.893372,384.822388 
	C732.809814,384.749756 732.943359,384.573090 732.913940,384.210022 
	C732.541077,383.229645 732.197693,382.612274 731.907166,382.013428 
	C731.959961,382.031982 731.919617,382.136383 731.892334,381.825867 
	C731.561218,380.987213 731.257324,380.459137 730.888550,379.845459 
	C730.823669,379.759888 730.988403,379.622040 730.725769,379.273987 
	C729.712158,378.636902 728.963074,378.101959 728.209961,378.096313 
	C719.292725,378.029358 710.374023,377.985779 701.457947,378.101379 
	C700.308899,378.116241 699.171997,379.063538 698.033936,379.921661 
	C694.666016,388.822357 687.768188,391.038879 680.775635,385.713837 
	C681.213806,384.195953 681.663330,382.638611 682.112854,381.081268 
	C682.112854,381.081268 682.020142,381.027374 682.284119,380.885529 
	C682.695801,380.187347 682.843506,379.631042 682.991211,379.074738 
	C682.991211,379.074738 683.215942,378.876495 683.452271,378.491760 
	C683.894531,377.445374 684.100525,376.783722 684.306519,376.122070 
	C684.306519,376.122070 684.214539,376.135864 684.460938,375.978027 
	C684.862671,375.230316 685.018066,374.640442 685.173462,374.050568 
	C685.173462,374.050568 685.094421,374.070740 685.348450,373.933716 
	C685.742737,373.233948 685.882996,372.671204 686.023254,372.108490 
	C686.023254,372.108490 686.113892,372.068329 686.348633,371.796631 
	C687.709900,368.716309 688.836426,365.907684 689.963013,363.099091 
	C689.963013,363.099091 690.225159,362.843842 690.483154,362.420410 
	C691.213745,360.713562 691.686340,359.430145 692.158875,358.146729 
	C692.158875,358.146729 692.039490,358.094025 692.348816,357.900269 
	C693.080688,356.512024 693.503235,355.317566 693.925781,354.123108 
	C693.925781,354.123108 694.202515,353.776245 694.470581,353.326111 
	C695.186279,351.604706 695.633972,350.333405 696.081604,349.062134 
	C696.081604,349.062134 695.998779,349.020142 696.255005,348.859802 
	C696.670898,348.145355 696.830566,347.591217 696.990173,347.037079 
	C696.990173,347.037079 697.199463,346.864532 697.438965,346.482727 
	C698.173218,344.747406 698.668030,343.393921 699.162842,342.040436 
	C699.162842,342.040436 699.071533,342.059723 699.320190,341.927673 
	C699.707458,341.240784 699.846069,340.686005 699.984619,340.131195 
	C699.984619,340.131195 700.158997,340.053650 700.339111,339.814392 
	C700.661255,339.082581 700.803223,338.590027 700.945190,338.097473 
	C700.945190,338.097473 701.182617,337.799835 701.441711,337.357483 
	C702.880432,333.969574 704.060059,331.024078 705.239685,328.078552 
	C705.239685,328.078552 705.127136,328.091034 705.382202,327.958832 
	C705.803528,327.246674 705.969727,326.666718 706.135986,326.086761 
	C706.135986,326.086761 706.024414,326.011261 706.323120,325.826904 
	C707.469299,323.436707 708.316772,321.230835 709.164307,319.024963 
	C709.164307,319.024963 709.064575,319.043976 709.327698,318.917175 
	C709.744934,318.210022 709.899109,317.629700 710.053284,317.049408 
	C710.053284,317.049408 710.000000,317.003662 710.279846,316.802490 
	C711.106445,315.142944 711.653137,313.684540 712.199890,312.226166 
	C712.199890,312.226166 712.187012,312.186401 712.422363,311.992371 
	C712.807678,311.259369 712.957764,310.720367 713.107788,310.181396 
	C713.107788,310.181396 713.195068,310.147919 713.364075,310.032928 
	C713.787476,309.799103 713.936951,309.601044 713.981628,309.323730 
	C714.441711,309.568756 714.901794,309.813782 715.646851,310.495819 
	C716.934998,312.982544 717.938110,315.032227 718.941223,317.081940 
	C718.941223,317.081940 718.983948,317.026184 718.970825,317.331787 
	C719.267822,318.139496 719.577881,318.641632 719.887878,319.143799 
	C719.887878,319.143799 719.939331,319.054108 719.934814,319.408142 
	C720.526001,320.926025 721.121643,322.089844 721.717346,323.253662 
	C721.717346,323.253662 721.662964,323.155823 721.741028,323.539734 
	C722.532288,325.310486 723.245422,326.697357 723.958618,328.084198 
	C723.958618,328.084198 723.990479,328.025757 723.991211,328.390930 
	C725.317627,331.480255 726.643250,334.204437 727.968933,336.928619 
	C727.968933,336.928619 727.937378,337.009796 727.991821,337.354706 
	C728.648254,338.842590 729.250183,339.985565 729.852051,341.128571 
	C729.852051,341.128571 729.989868,341.095856 729.955566,341.446594 
	C730.515625,342.942291 731.110046,344.087250 731.704468,345.232208 
	C731.704468,345.232208 731.780701,345.256042 731.808350,345.620239 
	C733.145386,348.733063 734.454712,351.481659 735.763977,354.230255 
	C738.596497,360.687836 741.429016,367.145416 744.577881,374.195068 
	C745.550049,376.053131 746.205811,377.319153 746.861572,378.585144 
M715.736572,343.027710 
	C715.329407,341.970337 714.922180,340.912994 714.364258,339.464203 
	C711.102661,347.789062 707.898743,355.739136 705.003357,363.800049 
	C704.778137,364.427185 706.647095,366.646851 707.658264,366.730560 
	C711.785706,367.072388 715.958313,366.841522 720.113770,366.879700 
	C723.562378,366.911377 724.550110,365.697113 723.117554,362.291351 
	C720.546265,356.178528 718.306091,349.926483 715.736572,343.027710 
z"/>
<path fill="#36372B" opacity="1.000000" stroke="none" 
	d="
M598.019775,305.402527 
	C602.043091,305.336426 606.066345,305.270355 610.542847,305.732391 
	C611.020203,318.165222 610.989441,330.070709 611.152954,341.973511 
	C611.169434,343.174500 612.359131,344.359406 613.004395,345.551758 
	C613.641846,344.993530 614.279297,344.435272 614.916748,343.877045 
	C614.916748,343.877045 614.944580,343.947052 615.232544,343.835815 
	C616.993591,342.508087 618.466797,341.291626 619.940002,340.075134 
	C619.940002,340.075165 620.251282,339.815338 620.935425,339.858398 
	C628.185181,339.565399 634.628723,339.858185 640.413330,343.547546 
	C640.413330,343.547546 640.358398,343.639954 640.409729,343.881226 
	C640.756348,344.365723 641.051636,344.608948 641.346924,344.852142 
	C641.346924,344.852142 641.158752,344.854584 641.233582,345.096161 
	C641.968262,346.203705 642.628174,347.069672 643.288086,347.935638 
	C643.288086,347.935638 643.144104,347.903015 643.130432,348.253326 
	C643.730408,359.802155 644.372192,370.999268 644.941895,382.200012 
	C645.133057,385.958130 643.073730,387.231537 639.574890,386.654633 
	C638.599854,386.493805 637.530823,385.969727 636.669800,386.208069 
	C632.346741,387.404510 631.942810,384.909912 631.976318,381.642883 
	C632.046143,374.849243 632.284180,368.035980 631.847717,361.269867 
	C631.690430,358.831696 629.796509,356.505524 628.695068,354.128265 
	C628.695068,354.128265 628.883789,354.105835 628.750488,353.943481 
	C628.296936,353.573425 627.976746,353.365723 627.656494,353.158020 
	C627.656494,353.158020 627.883240,353.115570 627.694458,352.899506 
	C623.912415,350.203400 620.408569,350.126282 617.017334,353.073730 
	C617.017334,353.073730 617.020508,353.007660 616.742981,353.071350 
	C616.028748,353.531616 615.592041,353.928223 615.155334,354.324829 
	C615.155334,354.324860 615.134216,354.150482 614.972290,354.277039 
	C614.611938,354.710754 614.413574,355.017914 614.215149,355.325073 
	C614.215149,355.325073 614.200500,355.159546 614.002686,355.316101 
	C613.583862,356.042938 613.362915,356.613190 613.141968,357.183441 
	C613.141968,357.183441 613.095154,357.066406 612.865540,357.309448 
	C612.093811,359.943604 611.175842,362.320374 611.083862,364.728699 
	C610.855286,370.709747 611.058105,376.706177 610.956116,382.694183 
	C610.935059,383.931305 610.418701,386.195374 610.001831,386.225891 
	C606.778015,386.461700 603.359619,386.818787 600.355469,385.934937 
	C599.118225,385.570923 598.098389,382.253448 598.087280,380.273163 
	C597.946960,355.316956 598.009277,330.359589 598.019775,305.402527 
z"/>
<path fill="#31332E" opacity="1.000000" stroke="none" 
	d="
M397.157654,363.983459 
	C396.883057,364.233124 396.608459,364.482819 395.893127,365.246765 
	C395.289948,369.724670 395.015717,373.687531 394.987244,377.652161 
	C394.918030,387.280304 393.855377,388.245331 384.333710,386.792206 
	C383.528381,386.669250 382.766388,386.262451 381.904449,385.578979 
	C381.853119,361.775146 381.881439,338.379852 381.912659,314.984558 
	C381.912872,314.819580 381.889648,314.583160 381.983459,314.500519 
	C383.302429,313.338562 384.621704,311.228424 385.975677,311.202972 
	C398.109863,310.975159 410.257965,310.879456 422.387329,311.238892 
	C429.204773,311.440887 429.551453,312.378601 429.039551,319.376709 
	C428.864716,321.766724 428.286224,322.804504 425.468140,322.755096 
	C416.678986,322.600983 407.879669,322.786560 399.091370,323.064209 
	C397.709137,323.107849 396.363586,324.313721 394.973969,325.360962 
	C394.829346,332.027557 394.995728,338.337616 394.506073,344.596344 
	C394.101532,349.767731 394.696259,350.972809 399.777893,351.020752 
	C406.918518,351.088135 414.061401,351.123657 421.200897,351.014069 
	C424.553314,350.962585 425.954529,352.282745 426.048828,355.699097 
	C426.228668,362.211731 425.713470,362.931213 419.306793,362.962982 
	C414.490723,362.986847 409.670776,362.855865 404.859711,363.013062 
	C402.284546,363.097229 399.724518,363.644928 397.157654,363.983459 
z"/>
<path fill="#36372A" opacity="1.000000" stroke="none" 
	d="
M454.702362,367.978241 
	C452.794617,371.736023 455.957672,373.154572 458.157440,374.357361 
	C463.303070,377.170837 468.736969,376.501495 474.049622,374.512817 
	C475.426453,373.997437 476.738739,373.309753 478.329254,372.588501 
	C481.116058,375.557251 483.821045,378.438843 486.509308,381.302612 
	C478.408203,390.909668 457.663910,391.713654 446.564270,383.018921 
	C436.452515,375.097961 434.359100,359.587585 441.963501,348.930939 
	C450.337891,337.195282 467.865784,334.663147 480.940643,343.964783 
	C482.123505,345.384857 483.106323,346.169281 484.089142,346.953705 
	C484.347870,347.173340 484.606628,347.393005 484.941071,348.240875 
	C486.295593,352.782776 487.913422,356.624237 488.766571,360.628601 
	C489.810883,365.530334 488.430084,366.941681 483.424927,366.970917 
	C475.141876,367.019318 466.857941,366.945068 458.575562,367.033661 
	C457.281281,367.047516 455.993286,367.648651 454.702362,367.978241 
M453.948517,356.594330 
	C454.358032,357.479584 454.747314,359.124329 455.180145,359.135895 
	C461.431427,359.302673 467.688568,359.250061 474.160431,359.250061 
	C473.985413,354.444855 471.586121,351.999390 467.904907,351.255951 
	C462.618530,350.188354 457.528473,350.605804 453.948517,356.594330 
z"/>
<path fill="#34352A" opacity="1.000000" stroke="none" 
	d="
M518.895630,337.927429 
	C522.882751,338.512695 526.869812,339.097931 531.323792,339.751709 
	C531.323792,343.431061 531.323792,347.457153 531.323792,351.872681 
	C527.408752,351.872681 523.634155,351.872681 519.349609,351.872681 
	C519.349609,358.990143 518.999817,365.761139 519.482727,372.472198 
	C519.766052,376.411255 522.230652,376.817169 528.659668,374.429688 
	C530.461060,377.633179 532.303772,380.910065 534.393311,384.626007 
	C527.959717,389.759521 520.923279,390.285828 513.680847,388.009674 
	C506.612701,385.788239 504.413391,379.722595 504.044159,373.104584 
	C503.665894,366.325165 503.960297,359.508270 503.960297,352.377380 
	C501.448212,352.149323 499.365326,351.960205 496.950928,351.740997 
	C496.950928,347.614258 496.950928,343.555603 496.950928,339.308716 
	C499.130493,339.190826 501.108948,339.083801 503.782898,338.600616 
	C504.660309,332.458679 505.212494,326.674042 504.919617,320.932495 
	C504.628967,315.234070 507.753143,315.023041 512.055481,314.907410 
	C516.460632,314.789093 518.301147,315.969513 518.129639,320.739502 
	C517.924194,326.452240 518.600952,332.196716 518.895630,337.927429 
z"/>
<path fill="#36372A" opacity="1.000000" stroke="none" 
	d="
M576.302612,371.836975 
	C580.117371,374.302216 583.635620,376.942963 587.130432,379.566162 
	C581.208496,387.897736 569.457397,391.121307 558.530518,387.825531 
	C547.439209,384.480164 540.606506,375.377197 540.419983,363.697449 
	C540.242920,352.613617 546.721802,343.454285 557.346008,339.768738 
	C568.810059,335.791870 580.286682,338.789673 587.394104,348.022308 
	C583.997742,350.791992 580.583862,353.575989 577.047119,356.460144 
	C575.497375,355.270233 574.285828,354.157776 572.908508,353.316833 
	C568.896667,350.867493 563.049866,351.333618 559.830383,354.246063 
	C556.139954,357.584473 555.063965,364.354950 557.396057,369.563324 
	C559.273376,373.756012 563.684387,376.400452 568.425232,375.428619 
	C571.074280,374.885559 573.486938,373.189178 576.302612,371.836975 
z"/>
<path fill="#45420C" opacity="1.000000" stroke="none" 
	d="
M179.183884,403.902039 
	C179.183884,403.902039 179.003098,403.448364 178.953094,402.769714 
	C178.995819,393.391388 179.088547,384.691711 179.369980,376.003601 
	C179.558670,376.015137 179.935516,376.045624 179.945709,376.511292 
	C179.962250,383.468048 180.202301,389.970245 179.893539,396.446289 
	C179.684586,400.829071 181.167023,402.155762 185.567993,402.144501 
	C237.995697,402.010376 290.423859,402.065979 342.851868,402.011139 
	C344.599274,402.009308 346.346008,401.366180 348.317108,400.675659 
	C348.687958,398.517181 348.962280,396.705078 348.963074,394.892853 
	C348.986908,340.950562 348.983643,287.008270 349.232849,233.006012 
	C349.650055,232.965454 349.819122,232.984894 349.988220,233.004333 
	C349.988220,233.004333 349.999756,233.009552 350.012787,233.484711 
	C350.000702,274.356384 349.952759,314.752869 349.961823,355.149384 
	C349.965424,371.105713 350.096008,387.062012 350.168762,403.018341 
	C350.168762,403.018341 349.970032,403.412415 349.462769,403.655823 
	C292.364960,403.900146 235.774429,403.901093 179.183884,403.902039 
z"/>
<path fill="#EEDD44" opacity="1.000000" stroke="none" 
	d="
M350.055969,232.697266 
	C349.819122,232.984894 349.650055,232.965454 348.771210,232.925964 
	C301.026154,232.895523 253.990860,232.873245 206.955566,232.884903 
	C197.652557,232.887207 188.349594,233.020004 179.066986,232.950531 
	C179.087357,232.808426 178.999969,232.534973 178.999969,232.534973 
	C180.631439,232.022720 182.262268,231.065094 183.894470,231.062729 
	C237.927811,230.984344 291.961273,230.987061 345.994659,231.055267 
	C347.371582,231.057007 348.747375,231.925781 350.055969,232.697266 
z"/>
<path fill="#45420C" opacity="1.000000" stroke="none" 
	d="
M395.001099,324.982208 
	C396.363586,324.313721 397.709137,323.107849 399.091370,323.064209 
	C407.879669,322.786560 416.678986,322.600983 425.468140,322.755096 
	C428.286224,322.804504 428.864716,321.766724 429.039551,319.376709 
	C429.551453,312.378601 429.204773,311.440887 422.387329,311.238892 
	C410.257965,310.879456 398.109863,310.975159 385.975677,311.202972 
	C384.621704,311.228424 383.302429,313.338562 381.983459,314.500519 
	C381.889648,314.583160 381.912872,314.819580 381.912659,314.984558 
	C381.881439,338.379852 381.853119,361.775146 381.712097,385.759338 
	C381.405182,386.831360 381.210815,387.314453 381.016479,387.797577 
	C380.713287,387.670135 380.410126,387.542725 380.065430,386.724365 
	C379.972809,361.013031 379.921753,335.992676 379.870667,310.972321 
	C380.089630,310.690491 380.308624,310.408661 381.232147,310.041870 
	C395.005920,309.962402 408.075439,309.925018 421.144257,310.003479 
	C424.419983,310.023132 427.693420,310.414978 430.967926,310.635773 
	C430.646790,314.868225 430.325623,319.100708 429.919464,324.453308 
	C418.875031,324.453308 407.730225,324.453308 396.039001,324.732849 
	C395.492615,325.012421 395.001099,324.982208 395.001099,324.982208 
z"/>
<path fill="#C7BB49" opacity="1.000000" stroke="none" 
	d="
M847.268677,386.805420 
	C845.272522,387.834198 843.287842,389.725891 841.278320,389.752686 
	C827.439453,389.937378 829.164001,391.372955 829.122986,378.101410 
	C829.058655,357.278809 829.045471,336.455444 829.188538,315.633636 
	C829.202759,313.561188 830.447876,311.497253 831.506226,309.453461 
	C831.890686,309.477570 832.034668,309.896515 831.661377,310.146484 
	C831.108765,311.528137 830.774536,312.659637 830.773132,313.791565 
	C830.744019,337.185394 830.748108,360.579254 830.768799,383.973114 
	C830.769836,385.093506 830.984619,386.213745 831.209106,388.396912 
	C836.514221,387.837433 841.621704,387.298767 846.865601,386.753723 
	C847.001953,386.747345 847.268677,386.805420 847.268677,386.805420 
z"/>
<path fill="#EEDD44" opacity="1.000000" stroke="none" 
	d="
M178.033539,402.977264 
	C177.688492,401.231354 177.043732,399.485718 177.041977,397.739471 
	C176.988602,344.682831 176.993423,291.626160 177.022430,238.569489 
	C177.023331,236.937317 177.377823,235.305359 177.842377,233.628036 
	C178.332840,234.082764 178.548355,234.582764 178.816254,235.405075 
	C178.943161,236.155502 179.017700,236.583618 179.027985,236.945435 
	C178.963715,236.879150 178.784439,236.923294 178.597473,237.293793 
	C178.294937,239.983780 178.079727,242.303207 178.078445,244.622772 
	C178.049332,297.407593 178.043625,350.192444 178.033539,402.977264 
z"/>
<path fill="#E6D969" opacity="1.000000" stroke="none" 
	d="
M179.469330,404.182556 
	C235.774429,403.901093 292.364960,403.900146 349.409882,403.870056 
	C348.322021,404.239319 346.780121,404.984375 345.237457,404.986023 
	C291.539154,405.043304 237.840820,405.034943 184.142487,405.003967 
	C182.679810,405.003143 181.217331,404.651245 179.469330,404.182556 
z"/>
<path fill="#E6D969" opacity="1.000000" stroke="none" 
	d="
M350.452148,402.887726 
	C350.096008,387.062012 349.965424,371.105713 349.961823,355.149384 
	C349.952759,314.752869 350.000702,274.356384 350.013367,233.495026 
	C350.351013,234.772583 351.003784,236.514389 351.007233,238.257477 
	C351.115173,292.812347 351.160645,347.367340 351.194489,401.922333 
	C351.194672,402.200500 350.895081,402.478851 350.452148,402.887726 
z"/>
<path fill="#C7BB49" opacity="1.000000" stroke="none" 
	d="
M178.216827,403.000000 
	C178.043625,350.192444 178.049332,297.407593 178.078445,244.622772 
	C178.079727,242.303207 178.294937,239.983780 178.695602,237.632996 
	C179.046082,238.067673 179.111465,238.533646 179.115692,239.466049 
	C179.096786,285.285675 179.139038,330.638885 179.181290,375.992065 
	C179.088547,384.691711 178.995819,393.391388 178.836304,402.555267 
	C178.769516,403.019501 178.400116,403.022736 178.216827,403.000000 
z"/>
<path fill="#3C370E" opacity="1.000000" stroke="none" 
	d="
M597.831421,305.313171 
	C598.009277,330.359589 597.946960,355.316956 598.087280,380.273163 
	C598.098389,382.253448 599.118225,385.570923 600.355469,385.934937 
	C603.359619,386.818787 606.778015,386.461700 610.001831,386.225891 
	C610.418701,386.195374 610.935059,383.931305 610.956116,382.694183 
	C611.058105,376.706177 610.855286,370.709747 611.083862,364.728699 
	C611.175842,362.320374 612.093811,359.943604 612.925903,357.291199 
	C613.011719,366.957916 612.807617,376.885864 612.238770,387.351562 
	C606.942627,387.891449 602.011169,387.893646 597.079712,387.895874 
	C597.079712,387.895874 597.010742,387.407349 597.008179,386.715515 
	C597.081360,359.065643 597.157043,332.107605 597.232788,305.149536 
	C597.232727,305.149536 597.643005,305.223785 597.831421,305.313171 
z"/>
<path fill="#3C370E" opacity="1.000000" stroke="none" 
	d="
M628.844055,354.527954 
	C629.796509,356.505524 631.690430,358.831696 631.847717,361.269867 
	C632.284180,368.035980 632.046143,374.849243 631.976318,381.642883 
	C631.942810,384.909912 632.346741,387.404510 636.669800,386.208069 
	C637.530823,385.969727 638.599854,386.493805 639.574890,386.654633 
	C643.073730,387.231537 645.133057,385.958130 644.941895,382.200012 
	C644.372192,370.999268 643.730408,359.802155 643.154785,348.183655 
	C644.090942,350.386322 645.689453,352.989227 645.763916,355.635101 
	C646.062073,366.219940 645.887024,376.818176 645.887024,387.721985 
	C640.935791,387.721985 636.198181,387.721985 630.684937,387.721985 
	C630.684937,379.869843 630.839233,371.976227 630.607544,364.094025 
	C630.517273,361.025391 629.557007,357.982361 628.844055,354.527954 
z"/>
<path fill="#E6D969" opacity="1.000000" stroke="none" 
	d="
M732.943359,384.573090 
	C732.943359,384.573090 732.809814,384.749756 732.874756,385.174683 
	C732.959778,386.066406 732.979858,386.533203 732.971558,387.027710 
	C732.943176,387.055420 732.887329,387.111877 732.887329,387.111877 
	C729.164795,379.288879 722.126770,379.752045 715.151978,379.969177 
	C712.160583,380.062317 709.157043,380.112732 706.171204,379.953400 
	C701.814575,379.720917 699.102356,381.136749 697.536743,385.649139 
	C696.882629,387.534424 693.873779,389.009033 691.628601,389.811951 
	C689.710938,390.497711 687.297302,390.262054 685.207092,389.873718 
	C682.936951,389.452026 680.787048,388.383057 678.584717,387.596313 
	C679.534668,385.467529 680.484680,383.338715 681.773743,381.145599 
	C681.663330,382.638611 681.213806,384.195953 680.775635,385.713837 
	C687.768188,391.038879 694.666016,388.822357 698.490601,379.778290 
	C709.624573,379.402130 720.306519,379.512085 730.988403,379.622040 
	C730.988403,379.622040 730.823669,379.759888 730.892883,380.164612 
	C731.281311,381.091644 731.600464,381.614014 731.919617,382.136383 
	C731.919617,382.136383 731.959961,382.031982 731.916870,382.380432 
	C732.230347,383.343597 732.586853,383.958344 732.943359,384.573090 
z"/>
<path fill="#3C370E" opacity="1.000000" stroke="none" 
	d="
M394.973969,325.360962 
	C395.001099,324.982208 395.492615,325.012421 395.737610,325.037170 
	C395.982605,333.175354 395.982605,341.288788 395.982605,349.848572 
	C406.607971,349.848572 416.534668,349.848572 426.841003,349.848572 
	C426.841003,354.678680 426.841003,359.061951 426.841003,364.136536 
	C417.241974,364.136536 407.644989,364.136536 397.602814,364.059998 
	C399.724518,363.644928 402.284546,363.097229 404.859711,363.013062 
	C409.670776,362.855865 414.490723,362.986847 419.306793,362.962982 
	C425.713470,362.931213 426.228668,362.211731 426.048828,355.699097 
	C425.954529,352.282745 424.553314,350.962585 421.200897,351.014069 
	C414.061401,351.123657 406.918518,351.088135 399.777893,351.020752 
	C394.696259,350.972809 394.101532,349.767731 394.506073,344.596344 
	C394.995728,338.337616 394.829346,332.027557 394.973969,325.360962 
z"/>
<path fill="#3C370E" opacity="1.000000" stroke="none" 
	d="
M455.180420,368.052979 
	C455.993286,367.648651 457.281281,367.047516 458.575562,367.033661 
	C466.857941,366.945068 475.141876,367.019318 483.424927,366.970917 
	C488.430084,366.941681 489.810883,365.530334 488.766571,360.628601 
	C487.913422,356.624237 486.295593,352.782776 484.997009,348.497681 
	C489.553650,353.899139 490.513184,360.568298 490.104126,368.127747 
	C478.434448,368.127747 467.046478,368.127747 455.180420,368.052979 
z"/>
<path fill="#3C370E" opacity="1.000000" stroke="none" 
	d="
M614.472778,344.040527 
	C614.279297,344.435272 613.641846,344.993530 613.004395,345.551758 
	C612.359131,344.359406 611.169434,343.174500 611.152954,341.973511 
	C610.989441,330.070709 611.020203,318.165222 610.998718,305.816132 
	C611.533813,306.863556 612.507690,308.349609 612.527222,309.848022 
	C612.656311,319.772919 612.518677,329.701172 612.637085,339.626312 
	C612.655334,341.157501 613.543152,342.678345 614.472778,344.040527 
z"/>
<path fill="#E6D969" opacity="1.000000" stroke="none" 
	d="
M596.944519,305.433960 
	C597.157043,332.107605 597.081360,359.065643 596.929993,386.481567 
	C596.575928,385.507263 596.057617,384.075592 596.054626,382.642853 
	C596.004211,358.287201 596.008057,333.931458 596.044373,309.575745 
	C596.046326,308.289673 596.443237,307.004150 596.944519,305.433960 
z"/>
<path fill="#E6D969" opacity="1.000000" stroke="none" 
	d="
M379.541199,311.095154 
	C379.921753,335.992676 379.972809,361.013031 379.940399,386.491577 
	C379.562042,385.019989 379.016541,383.090881 379.010834,381.160217 
	C378.950470,360.698639 378.966980,340.236847 378.988190,319.775085 
	C378.991150,316.922638 379.133728,314.070343 379.541199,311.095154 
z"/>
<path fill="#E6D969" opacity="1.000000" stroke="none" 
	d="
M760.673462,311.411926 
	C760.984863,311.507263 761.063721,311.933075 761.133423,313.141724 
	C761.179749,337.617401 761.235229,361.310211 761.290649,385.003052 
	C761.244385,385.403595 761.198120,385.804169 761.101196,386.772614 
	C760.985291,387.521759 760.920044,387.702972 760.854858,387.884186 
	C760.575012,386.611420 760.053772,385.339142 760.051147,384.065826 
	C760.005066,360.771301 760.017090,337.476654 760.041748,314.182068 
	C760.042603,313.368713 760.302002,312.555634 760.673462,311.411926 
z"/>
<path fill="#E6D969" opacity="1.000000" stroke="none" 
	d="
M847.310364,310.975677 
	C847.525330,312.101593 847.926086,313.227234 847.927856,314.353516 
	C847.964539,337.626373 847.958374,360.899292 847.943054,384.172180 
	C847.942627,384.825134 847.748047,385.477966 847.456299,386.468140 
	C847.268677,386.805420 847.001953,386.747345 846.810242,386.308502 
	C846.654358,360.982544 846.690186,336.095398 846.880981,311.172424 
	C847.035950,311.136597 847.310364,310.975677 847.310364,310.975677 
z"/>
<path fill="#3C370E" opacity="1.000000" stroke="none" 
	d="
M518.976196,337.471497 
	C518.600952,332.196716 517.924194,326.452240 518.129639,320.739502 
	C518.301147,315.969513 516.460632,314.789093 512.055481,314.907410 
	C507.753143,315.023041 504.628967,315.234070 504.919617,320.932495 
	C505.212494,326.674042 504.660309,332.458679 504.205078,338.505798 
	C503.931793,330.680054 503.931793,322.572906 503.931793,314.146118 
	C509.005249,314.146118 513.722351,314.146118 519.056824,314.146118 
	C519.056824,321.846497 519.056824,329.431030 518.976196,337.471497 
z"/>
<path fill="#E6D969" opacity="1.000000" stroke="none" 
	d="
M735.055664,387.877625 
	C739.668335,387.557343 744.281006,387.237091 749.303650,386.888367 
	C748.799744,384.888611 748.416138,383.366425 747.992920,381.441132 
	C749.183838,383.018860 750.551697,384.934357 751.547302,387.026947 
	C751.792419,387.542206 751.036743,388.922241 750.376038,389.408539 
	C748.210754,391.002319 735.303040,389.705627 733.011719,387.473450 
	C732.887329,387.111877 732.943176,387.055420 733.231689,387.165466 
	C734.032043,387.476196 734.543884,387.676910 735.055664,387.877625 
z"/>
<path fill="#E6D969" opacity="1.000000" stroke="none" 
	d="
M430.703644,310.287872 
	C427.693420,310.414978 424.419983,310.023132 421.144257,310.003479 
	C408.075439,309.925018 395.005920,309.962402 381.468903,309.908386 
	C382.266235,309.555908 383.530151,308.993317 384.796600,308.987640 
	C398.764191,308.924957 412.732239,308.923737 426.699768,308.992310 
	C427.947815,308.998413 429.192902,309.609741 430.703644,310.287872 
z"/>
<path fill="#3C370E" opacity="1.000000" stroke="none" 
	d="
M381.474182,387.891724 
	C381.210815,387.314453 381.405182,386.831360 381.791870,386.167877 
	C382.766388,386.262451 383.528381,386.669250 384.333710,386.792206 
	C393.855377,388.245331 394.918030,387.280304 394.987244,377.652161 
	C395.015717,373.687531 395.289948,369.724670 395.713165,365.459320 
	C395.973938,372.580688 395.973938,380.003723 395.973938,387.985870 
	C391.106384,387.985870 386.519165,387.985870 381.474182,387.891724 
z"/>
<path fill="#3C370E" opacity="1.000000" stroke="none" 
	d="
M640.244019,343.264954 
	C634.628723,339.858185 628.185181,339.565399 621.138062,339.850281 
	C627.822021,336.634186 634.267761,337.859863 640.244019,343.264954 
z"/>
<path fill="#E6D969" opacity="1.000000" stroke="none" 
	d="
M597.192017,388.271790 
	C602.011169,387.893646 606.942627,387.891449 612.306274,387.797577 
	C609.902161,390.497101 601.955566,390.982025 597.192017,388.271790 
z"/>
<path fill="#45420C" opacity="1.000000" stroke="none" 
	d="
M789.402649,310.628296 
	C780.415527,310.914795 771.299866,311.002625 761.734070,311.100647 
	C761.283875,311.110840 761.110596,310.650665 761.553894,310.345764 
	C770.994690,310.044373 779.992249,310.047882 788.989746,310.051392 
	C788.989746,310.051392 789.274170,310.429596 789.402649,310.628296 
z"/>
<path fill="#E6D969" opacity="1.000000" stroke="none" 
	d="
M788.664795,309.791870 
	C779.992249,310.047882 770.994690,310.044373 761.538818,310.100403 
	C762.775146,309.754028 764.472351,308.991516 766.164062,309.003754 
	C773.556885,309.057281 780.948120,309.335632 788.664795,309.791870 
z"/>
<path fill="#E6D969" opacity="1.000000" stroke="none" 
	d="
M832.034668,309.896515 
	C832.034668,309.896515 831.890686,309.477570 831.816772,309.267822 
	C836.000488,308.927979 840.258118,308.797913 844.797485,309.098541 
	C845.079163,309.529236 844.963318,309.893646 844.505981,309.935486 
	C840.044006,309.950378 836.039368,309.923462 832.034668,309.896515 
z"/>
<path fill="#E6D969" opacity="1.000000" stroke="none" 
	d="
M689.640381,363.156921 
	C688.836426,365.907684 687.709900,368.716309 686.332886,371.749634 
	C684.839111,368.196930 686.044495,365.323914 689.640381,363.156921 
z"/>
<path fill="#3C370E" opacity="1.000000" stroke="none" 
	d="
M617.477905,353.027985 
	C620.408569,350.126282 623.912415,350.203400 627.707886,353.014099 
	C624.586182,353.223877 621.262329,353.103058 617.477905,353.027985 
z"/>
<path fill="#45420C" opacity="1.000000" stroke="none" 
	d="
M761.076599,388.247742 
	C760.920044,387.702972 760.985291,387.521759 761.160156,387.071106 
	C764.002991,387.065674 766.736389,387.329651 769.776123,387.854645 
	C767.154480,388.280884 764.226440,388.446106 761.076599,388.247742 
z"/>
<path fill="#E6D969" opacity="1.000000" stroke="none" 
	d="
M704.904297,328.219299 
	C704.060059,331.024078 702.880432,333.969574 701.441833,337.167114 
	C702.311523,334.399445 703.440186,331.379761 704.904297,328.219299 
z"/>
<path fill="#E6D969" opacity="1.000000" stroke="none" 
	d="
M727.977905,336.533997 
	C726.643250,334.204437 725.317627,331.480255 723.958008,328.391266 
	C725.278259,330.730774 726.632507,333.435059 727.977905,336.533997 
z"/>
<path fill="#E6D969" opacity="1.000000" stroke="none" 
	d="
M735.818848,353.822083 
	C734.454712,351.481659 733.145386,348.733063 731.772705,345.638306 
	C733.097473,347.999390 734.485596,350.706665 735.818848,353.822083 
z"/>
<path fill="#E6D969" opacity="1.000000" stroke="none" 
	d="
M718.954041,316.684082 
	C717.938110,315.032227 716.934998,312.982544 715.891968,310.595764 
	C716.890320,312.267853 717.928589,314.277069 718.954041,316.684082 
z"/>
<path fill="#E6D969" opacity="1.000000" stroke="none" 
	d="
M708.841553,319.188538 
	C708.316772,321.230835 707.469299,323.436707 706.369019,325.876129 
	C706.917175,323.857147 707.717957,321.604614 708.841553,319.188538 
z"/>
<path fill="#3C370E" opacity="1.000000" stroke="none" 
	d="
M619.610596,340.106110 
	C618.466797,341.291626 616.993591,342.508087 615.194824,343.836609 
	C616.339905,342.678101 617.810547,341.407593 619.610596,340.106110 
z"/>
<path fill="#45420C" opacity="1.000000" stroke="none" 
	d="
M815.510071,351.449341 
	C815.667542,349.666901 816.080200,347.641632 816.735840,345.338745 
	C816.574341,347.109589 816.169800,349.158081 815.510071,351.449341 
z"/>
<path fill="#45420C" opacity="1.000000" stroke="none" 
	d="
M798.001343,312.501465 
	C796.014160,312.323730 793.798950,311.894928 791.307007,311.232544 
	C793.277954,311.416107 795.525696,311.833252 798.001343,312.501465 
z"/>
<path fill="#E6D969" opacity="1.000000" stroke="none" 
	d="
M711.839600,312.277771 
	C711.653137,313.684540 711.106445,315.142944 710.307312,316.822754 
	C710.529724,315.472565 711.004517,313.901001 711.839600,312.277771 
z"/>
<path fill="#E6D969" opacity="1.000000" stroke="none" 
	d="
M723.973877,327.684784 
	C723.245422,326.697357 722.532288,325.310486 721.747864,323.595337 
	C722.447510,324.606445 723.218323,325.945923 723.973877,327.684784 
z"/>
<path fill="#E6D969" opacity="1.000000" stroke="none" 
	d="
M731.772339,344.852051 
	C731.110046,344.087250 730.515625,342.942291 729.888123,341.472900 
	C730.516785,342.256287 731.178467,343.364075 731.772339,344.852051 
z"/>
<path fill="#3C370E" opacity="1.000000" stroke="none" 
	d="
M483.978821,346.658936 
	C483.106323,346.169281 482.123505,345.384857 481.110657,344.259827 
	C482.009888,344.734222 482.939178,345.549194 483.978821,346.658936 
z"/>
<path fill="#E6D969" opacity="1.000000" stroke="none" 
	d="
M693.593018,354.208435 
	C693.503235,355.317566 693.080688,356.512024 692.413025,357.911133 
	C692.531982,356.841797 692.896118,355.567749 693.593018,354.208435 
z"/>
<path fill="#E6D969" opacity="1.000000" stroke="none" 
	d="
M695.722412,349.161133 
	C695.633972,350.333405 695.186279,351.604706 694.497498,353.105896 
	C694.625305,351.977264 694.994263,350.618683 695.722412,349.161133 
z"/>
<path fill="#45420C" opacity="1.000000" stroke="none" 
	d="
M802.963501,314.573364 
	C801.622253,314.317078 800.057373,313.789917 798.287231,312.969849 
	C799.634521,313.218811 801.187195,313.760651 802.963501,314.573364 
z"/>
<path fill="#E6D969" opacity="1.000000" stroke="none" 
	d="
M721.784729,322.869995 
	C721.121643,322.089844 720.526001,320.926025 719.889160,319.432495 
	C720.516113,320.230621 721.184082,321.358459 721.784729,322.869995 
z"/>
<path fill="#45420C" opacity="1.000000" stroke="none" 
	d="
M817.199219,336.785278 
	C816.883118,335.905792 816.651672,334.751526 816.602295,333.338684 
	C816.950928,334.223572 817.117371,335.367035 817.199219,336.785278 
z"/>
<path fill="#E6D969" opacity="1.000000" stroke="none" 
	d="
M698.825378,342.218262 
	C698.668030,343.393921 698.173218,344.747406 697.408630,346.350525 
	C697.588562,345.198822 698.038208,343.797455 698.825378,342.218262 
z"/>
<path fill="#E6D969" opacity="1.000000" stroke="none" 
	d="
M691.826782,358.300110 
	C691.686340,359.430145 691.213745,360.713562 690.495728,362.237915 
	C690.665100,361.137024 691.079895,359.795258 691.826782,358.300110 
z"/>
<path fill="#E6D969" opacity="1.000000" stroke="none" 
	d="
M746.884399,378.189087 
	C746.205811,377.319153 745.550049,376.053131 744.831909,374.435852 
	C745.482056,375.320709 746.194641,376.556854 746.884399,378.189087 
z"/>
<path fill="#45420C" opacity="1.000000" stroke="none" 
	d="
M813.431030,324.289734 
	C812.693298,323.664917 811.859070,322.739838 811.022095,321.467468 
	C811.791077,322.076599 812.562805,323.033051 813.431030,324.289734 
z"/>
<path fill="#E6D969" opacity="1.000000" stroke="none" 
	d="
M729.888550,340.759094 
	C729.250183,339.985565 728.648254,338.842590 728.031616,337.372498 
	C728.652954,338.160126 729.289001,339.274872 729.888550,340.759094 
z"/>
<path fill="#45420C" opacity="1.000000" stroke="none" 
	d="
M806.085571,316.510864 
	C805.287598,316.328156 804.322876,315.869568 803.226440,315.094299 
	C804.036133,315.263397 804.977478,315.749176 806.085571,316.510864 
z"/>
<path fill="#45420C" opacity="1.000000" stroke="none" 
	d="
M815.078369,327.680359 
	C814.520813,327.099030 813.956177,326.187561 813.389160,324.938751 
	C813.948242,325.517670 814.509705,326.433960 815.078369,327.680359 
z"/>
<path fill="#C7BB49" opacity="1.000000" stroke="none" 
	d="
M844.963318,309.893646 
	C844.963318,309.893646 845.079163,309.529236 845.139526,309.348999 
	C845.820801,309.587524 846.441772,310.006287 847.186523,310.700378 
	C847.310364,310.975677 847.035950,311.136597 846.681519,310.976379 
	C845.872498,310.508636 845.417908,310.201141 844.963318,309.893646 
z"/>
<path fill="#3C370E" opacity="1.000000" stroke="none" 
	d="
M643.240479,347.599243 
	C642.628174,347.069672 641.968262,346.203705 641.242859,345.002563 
	C641.849182,345.532532 642.521057,346.397705 643.240479,347.599243 
z"/>
<path fill="#45420C" opacity="1.000000" stroke="none" 
	d="
M816.092712,330.613831 
	C815.745544,330.245850 815.435730,329.603424 815.168945,328.670349 
	C815.518005,329.032898 815.824036,329.686127 816.092712,330.613831 
z"/>
<path fill="#45420C" opacity="1.000000" stroke="none" 
	d="
M817.297852,342.168640 
	C817.092834,341.480377 817.059998,340.488800 817.079834,339.000702 
	C817.244995,339.624573 817.357483,340.744965 817.297852,342.168640 
z"/>
<path fill="#45420C" opacity="1.000000" stroke="none" 
	d="
M809.901855,319.695923 
	C809.367859,319.534302 808.738281,319.095154 808.039062,318.356201 
	C808.581665,318.510376 809.193970,318.964355 809.901855,319.695923 
z"/>
<path fill="#E6D969" opacity="1.000000" stroke="none" 
	d="
M682.776367,379.268860 
	C682.843506,379.631042 682.695801,380.187347 682.317444,380.927551 
	C682.244995,380.561920 682.403259,380.012451 682.776367,379.268860 
z"/>
<path fill="#E6D969" opacity="1.000000" stroke="none" 
	d="
M747.929443,380.764008 
	C747.655701,380.573975 747.353088,380.097229 747.040894,379.331726 
	C747.321045,379.521057 747.610840,379.999176 747.929443,380.764008 
z"/>
<path fill="#E6D969" opacity="1.000000" stroke="none" 
	d="
M684.022827,376.340942 
	C684.100525,376.783722 683.894531,377.445374 683.431152,378.343445 
	C683.362183,377.906494 683.550598,377.233154 684.022827,376.340942 
z"/>
<path fill="#E6D969" opacity="1.000000" stroke="none" 
	d="
M712.874390,310.349548 
	C712.957764,310.720367 712.807678,311.259369 712.438599,311.979187 
	C712.359985,311.612610 712.500488,311.065155 712.874390,310.349548 
z"/>
<path fill="#E6D969" opacity="1.000000" stroke="none" 
	d="
M684.931885,374.251343 
	C685.018066,374.640442 684.862671,375.230316 684.476440,376.021851 
	C684.393860,375.633026 684.542114,375.042542 684.931885,374.251343 
z"/>
<path fill="#E6D969" opacity="1.000000" stroke="none" 
	d="
M685.794617,372.290985 
	C685.882996,372.671204 685.742737,373.233948 685.362488,373.971985 
	C685.270325,373.589355 685.418152,373.031433 685.794617,372.290985 
z"/>
<path fill="#C7BB49" opacity="1.000000" stroke="none" 
	d="
M178.763870,235.082748 
	C178.548355,234.582764 178.332840,234.082764 178.102783,233.306274 
	C178.244415,232.955765 178.400574,232.881744 178.778351,232.671341 
	C178.999969,232.534973 179.087357,232.808426 179.078506,233.174286 
	C179.069656,233.540146 179.177216,233.975342 179.078247,234.253830 
	C178.907486,234.715790 178.835678,234.899261 178.763870,235.082748 
z"/>
<path fill="#45420C" opacity="1.000000" stroke="none" 
	d="
M814.466125,354.080872 
	C814.378052,353.659515 814.546143,353.022034 814.969666,352.156799 
	C815.057556,352.574280 814.889893,353.219543 814.466125,354.080872 
z"/>
<path fill="#E6D969" opacity="1.000000" stroke="none" 
	d="
M705.889465,326.272339 
	C705.969727,326.666718 705.803528,327.246674 705.393799,328.014252 
	C705.314514,327.620544 705.478760,327.039215 705.889465,326.272339 
z"/>
<path fill="#E6D969" opacity="1.000000" stroke="none" 
	d="
M700.748413,338.265686 
	C700.803223,338.590027 700.661255,339.082581 700.308350,339.724060 
	C700.248840,339.393280 700.400208,338.913605 700.748413,338.265686 
z"/>
<path fill="#E6D969" opacity="1.000000" stroke="none" 
	d="
M713.867493,309.186523 
	C713.936951,309.601044 713.787476,309.799103 713.355530,309.987000 
	C713.369751,309.720459 713.561523,309.384888 713.867493,309.186523 
z"/>
<path fill="#E6D969" opacity="1.000000" stroke="none" 
	d="
M699.760986,340.312622 
	C699.846069,340.686005 699.707458,341.240784 699.333008,341.972534 
	C699.243774,341.597687 699.390564,341.045868 699.760986,340.312622 
z"/>
<path fill="#E6D969" opacity="1.000000" stroke="none" 
	d="
M696.776001,347.235046 
	C696.830566,347.591217 696.670898,348.145355 696.288452,348.892151 
	C696.231079,348.534210 696.396484,347.983643 696.776001,347.235046 
z"/>
<path fill="#E6D969" opacity="1.000000" stroke="none" 
	d="
M709.817383,317.239594 
	C709.899109,317.629700 709.744934,318.210022 709.339905,318.966431 
	C709.253174,318.571594 709.417358,318.000671 709.817383,317.239594 
z"/>
<path fill="#3C370E" opacity="1.000000" stroke="none" 
	d="
M615.440918,354.241394 
	C615.592041,353.928223 616.028748,353.531616 616.770874,353.089111 
	C616.626404,353.414795 616.176453,353.786377 615.440918,354.241394 
z"/>
<path fill="#3C370E" opacity="1.000000" stroke="none" 
	d="
M613.389038,357.006409 
	C613.362915,356.613190 613.583862,356.042938 614.085571,355.321167 
	C614.122925,355.722900 613.879456,356.276154 613.389038,357.006409 
z"/>
<path fill="#45420C" opacity="1.000000" stroke="none" 
	d="
M812.264954,357.794128 
	C812.246216,357.420227 812.480896,356.905121 812.965942,356.238495 
	C812.983704,356.608948 812.751038,357.130951 812.264954,357.794128 
z"/>
<path fill="#E6D969" opacity="1.000000" stroke="none" 
	d="
M719.872986,318.837921 
	C719.577881,318.641632 719.267822,318.139496 718.935730,317.332764 
	C719.228516,317.529449 719.543335,318.030762 719.872986,318.837921 
z"/>
<path fill="#45420C" opacity="1.000000" stroke="none" 
	d="
M807.800354,317.770508 
	C807.419556,317.769928 806.902039,317.506317 806.247192,316.974365 
	C806.627808,316.973145 807.145752,317.240295 807.800354,317.770508 
z"/>
<path fill="#3C370E" opacity="1.000000" stroke="none" 
	d="
M614.476562,355.215515 
	C614.413574,355.017914 614.611938,354.710754 615.060059,354.276154 
	C615.119263,354.467773 614.928650,354.786835 614.476562,355.215515 
z"/>
<path fill="#45420C" opacity="1.000000" stroke="none" 
	d="
M810.868774,320.729370 
	C810.630798,320.844940 810.401672,320.657959 810.127441,320.203644 
	C810.373657,320.035858 810.638733,320.199371 810.868774,320.729370 
z"/>
<path fill="#45420C" opacity="1.000000" stroke="none" 
	d="
M811.303101,359.002625 
	C811.154358,358.786102 811.315247,358.515137 811.753967,358.158234 
	C811.812073,358.316742 811.672363,358.608704 811.303101,359.002625 
z"/>
<path fill="#3C370E" opacity="1.000000" stroke="none" 
	d="
M641.265625,344.567505 
	C641.051636,344.608948 640.756348,344.365723 640.373352,343.841675 
	C640.585205,343.801514 640.884827,344.042175 641.265625,344.567505 
z"/>
<path fill="#45420C" opacity="1.000000" stroke="none" 
	d="
M813.355042,356.081604 
	C813.160339,355.875153 813.277527,355.591461 813.672424,355.202789 
	C813.918884,355.410095 813.824463,355.712280 813.355042,356.081604 
z"/>
<path fill="#3C370E" opacity="1.000000" stroke="none" 
	d="
M627.762939,353.437592 
	C627.976746,353.365723 628.296936,353.573425 628.754150,354.038422 
	C628.550476,354.102875 628.209961,353.910004 627.762939,353.437592 
z"/>
<path fill="#EEDD41" opacity="1.000000" stroke="none" 
	d="
M776.944824,325.140289 
	C784.034668,322.810944 790.840942,323.708374 796.542297,328.342560 
	C801.988220,332.769226 801.736023,339.270447 800.473145,345.457703 
	C799.165466,351.863983 794.314331,354.816620 788.303284,355.640320 
	C784.733765,356.129395 781.034241,355.669250 777.243042,354.819031 
	C777.043579,344.381531 776.994202,334.760895 776.944824,325.140289 
z"/>
<path fill="#45420C" opacity="1.000000" stroke="none" 
	d="
M761.473633,384.634644 
	C761.235229,361.310211 761.179749,337.617401 761.208008,313.460144 
	C761.525757,314.287628 761.961121,315.579102 761.963684,316.871460 
	C762.006104,338.515900 761.998108,360.160492 761.980469,381.805023 
	C761.979797,382.625519 761.769287,383.445831 761.473633,384.634644 
z"/>
<path fill="#3C370E" opacity="1.000000" stroke="none" 
	d="
M776.701355,325.457733 
	C776.994202,334.760895 777.043579,344.381531 777.005981,354.453796 
	C776.614441,349.991943 776.135132,345.081299 776.054932,340.164154 
	C775.976868,335.371307 776.307007,330.571777 776.701355,325.457733 
z"/>
<path fill="#EEDD44" opacity="1.000000" stroke="none" 
	d="
M715.832031,343.380188 
	C718.306091,349.926483 720.546265,356.178528 723.117554,362.291351 
	C724.550110,365.697113 723.562378,366.911377 720.113770,366.879700 
	C715.958313,366.841522 711.785706,367.072388 707.658264,366.730560 
	C706.647095,366.646851 704.778137,364.427185 705.003357,363.800049 
	C707.898743,355.739136 711.102661,347.789062 714.364258,339.464203 
	C714.922180,340.912994 715.329407,341.970337 715.832031,343.380188 
z"/>
<path fill="#3C370E" opacity="1.000000" stroke="none" 
	d="
M730.725769,379.273987 
	C720.306519,379.512085 709.624573,379.402130 698.486084,379.435547 
	C699.171997,379.063538 700.308899,378.116241 701.457947,378.101379 
	C710.374023,377.985779 719.292725,378.029358 728.209961,378.096313 
	C728.963074,378.101959 729.712158,378.636902 730.725769,379.273987 
z"/>
<path fill="#3C370E" opacity="1.000000" stroke="none" 
	d="
M734.991821,387.569519 
	C734.543884,387.676910 734.032043,387.476196 733.260132,387.137756 
	C732.979858,386.533203 732.959778,386.066406 732.958252,385.247314 
	C733.627258,385.683838 734.277649,386.472656 734.991821,387.569519 
z"/>
<path fill="#3C370E" opacity="1.000000" stroke="none" 
	d="
M731.892334,381.825867 
	C731.600464,381.614014 731.281311,381.091644 730.957764,380.250183 
	C731.257324,380.459137 731.561218,380.987213 731.892334,381.825867 
z"/>
<path fill="#3C370E" opacity="1.000000" stroke="none" 
	d="
M732.913940,384.210022 
	C732.586853,383.958344 732.230347,383.343597 731.864136,382.361877 
	C732.197693,382.612274 732.541077,383.229645 732.913940,384.210022 
z"/>
<path fill="#EEDD44" opacity="1.000000" stroke="none" 
	d="
M454.102783,356.244141 
	C457.528473,350.605804 462.618530,350.188354 467.904907,351.255951 
	C471.586121,351.999390 473.985413,354.444855 474.160431,359.250061 
	C467.688568,359.250061 461.431427,359.302673 455.180145,359.135895 
	C454.747314,359.124329 454.358032,357.479584 454.102783,356.244141 
z"/>
<path fill="#31332E" opacity="1.000000" stroke="none" 
	d="
M179.176834,238.999603 
	C179.111465,238.533646 179.046082,238.067673 178.882568,237.262512 
	C178.784439,236.923294 178.963715,236.879150 179.227234,236.700912 
	C179.675537,235.712204 179.860321,234.901733 180.510605,234.072876 
	C234.283585,234.037460 287.591064,234.020767 340.898529,234.002914 
	C348.002106,234.000549 348.010010,233.997818 348.013763,241.099945 
	C348.042084,294.407288 348.067078,347.714630 348.093079,401.021973 
	C346.346008,401.366180 344.599274,402.009308 342.851868,402.011139 
	C290.423859,402.065979 237.995697,402.010376 185.567993,402.144501 
	C181.167023,402.155762 179.684586,400.829071 179.893539,396.446289 
	C180.202301,389.970245 179.962250,383.468048 179.968033,376.037964 
	C179.986771,331.508331 180.003052,287.917725 179.965103,244.327133 
	C179.963562,242.551056 179.451202,240.775436 179.176834,238.999603 
M331.968445,382.300720 
	C332.278656,382.124756 332.373016,381.868805 332.262543,381.347473 
	C332.262543,381.347473 332.437897,381.286530 333.155579,381.346710 
	C333.712982,380.163818 334.270416,378.980896 334.858459,377.893768 
	C334.858459,377.893768 334.759644,377.912506 335.440216,377.593994 
	C339.903595,370.910095 339.001190,359.999054 333.424652,352.917694 
	C326.661438,344.329346 316.692993,341.416473 306.563171,337.559509 
	C305.976501,337.424713 305.389801,337.289886 304.878998,337.134094 
	C304.878998,337.134094 304.887695,337.212372 304.698212,336.738068 
	C304.465973,336.492981 304.233765,336.247925 303.862274,335.219177 
	C303.578552,332.816010 303.294800,330.412872 303.564636,327.630157 
	C304.697113,326.640564 305.829590,325.650970 307.798828,324.842316 
	C310.814880,325.686951 314.442566,325.775391 316.678833,327.584106 
	C319.019501,329.477264 320.658295,329.916107 323.623901,328.494141 
	C324.546600,327.842407 325.469299,327.190674 326.296661,326.335632 
	C326.296661,326.335632 326.440033,326.508392 327.054962,326.220184 
	C328.686829,325.212982 330.318695,324.205780 331.659607,323.378174 
	C330.275391,317.912659 327.011932,315.000763 322.291534,313.570312 
	C322.291534,313.570312 322.410828,313.630493 322.078735,313.190491 
	C321.730652,313.094635 321.382599,312.998779 321.039948,312.973969 
	C321.039948,312.973969 321.098236,312.933014 320.565918,312.435394 
	C312.108002,309.118774 303.843201,309.005768 295.948181,313.951324 
	C295.948181,313.951324 295.962280,313.880585 295.369202,313.997803 
	C295.086029,314.268494 294.802856,314.539185 293.875671,314.942596 
	C292.247284,316.737610 290.618896,318.532623 288.668976,320.611633 
	C282.990387,331.759338 285.486633,343.728119 295.320557,351.532532 
	C296.198059,352.042572 297.075562,352.552612 298.377655,353.445557 
	C298.909515,353.637817 299.441345,353.830078 300.349274,354.590271 
	C301.574615,355.052765 302.799957,355.515259 304.373810,356.559662 
	C305.590118,357.029358 306.806396,357.499054 308.477264,358.425018 
	C309.295959,358.648682 310.114685,358.872345 311.371002,359.466858 
	C311.909058,359.648407 312.447083,359.829926 313.368927,360.427490 
	C313.879547,360.653290 314.390137,360.879059 315.309601,361.665192 
	C318.624390,364.439819 319.299530,368.155975 318.928162,372.615417 
	C318.755981,372.883453 318.511078,373.030212 317.329987,373.052429 
	C310.243896,374.369293 303.244110,375.676331 297.606445,369.158936 
	C293.491730,364.402191 286.217255,366.271851 283.709167,372.741638 
	C283.709167,372.741638 283.504822,372.784698 282.762390,372.470001 
	C278.956451,372.362000 279.646179,374.953094 280.745483,376.687866 
	C281.796387,378.346252 283.822266,379.386749 285.288452,380.722931 
	C285.288452,380.722931 285.292206,380.589661 285.399567,381.305847 
	C286.393585,382.021973 287.387604,382.738098 288.337158,383.534576 
	C288.337158,383.534576 288.426392,383.512817 288.584717,384.110840 
	C289.113983,384.365356 289.643280,384.619873 290.095032,384.905518 
	C290.095032,384.905518 290.111420,384.823639 290.216705,385.524689 
	C290.609772,386.035583 290.893890,386.750397 291.411987,387.027283 
	C301.523407,392.430573 312.032196,393.572906 322.910400,389.670227 
	C323.616272,389.416992 323.984100,388.221588 324.562195,387.465576 
	C324.562195,387.465576 324.579468,387.515747 325.119781,387.484222 
	C325.393188,387.261536 325.666565,387.038818 325.918121,386.900574 
	C325.918121,386.900574 325.836334,386.870300 326.550018,386.919006 
	C327.344391,386.240784 328.138794,385.562531 328.954987,384.962158 
	C328.954987,384.962158 328.883453,384.924469 329.488525,384.831696 
	C329.802612,384.367584 330.116699,383.903473 330.559753,383.619873 
	C330.559753,383.619873 330.484619,383.411133 330.962921,383.360077 
	C331.288940,383.177795 331.406677,382.905487 331.340363,382.356140 
	C331.340363,382.356140 331.522949,382.309021 331.968445,382.300720 
M265.979431,384.785919 
	C267.234222,382.789337 268.488983,380.792755 269.898682,378.968414 
	C269.898682,378.968414 269.733887,378.793335 270.412781,378.564392 
	C271.598450,375.387085 273.749298,372.227997 273.809692,369.029480 
	C274.145996,351.226349 274.023651,333.413330 273.889893,315.604950 
	C273.878723,314.118378 272.621704,312.641144 271.020203,311.068359 
	C266.092224,311.068359 261.164246,311.068359 256.003235,311.068359 
	C256.003235,314.913452 256.008728,317.903137 256.002319,320.892792 
	C255.969147,336.390076 256.025421,351.888367 255.859558,367.384277 
	C255.774185,375.357635 249.529663,379.037231 242.759811,375.035095 
	C240.184097,373.512390 238.241959,370.917938 236.237961,369.026154 
	C234.025009,370.065033 232.125046,370.989227 230.198914,371.855225 
	C223.746033,374.756531 223.481140,376.272766 228.314987,381.254425 
	C230.923294,383.780548 233.160828,387.802277 236.208115,388.557739 
	C246.111221,391.012878 256.230835,391.668579 265.979431,384.785919 
z"/>
<path fill="#262608" opacity="1.000000" stroke="none" 
	d="
M348.317139,400.675659 
	C348.067078,347.714630 348.042084,294.407288 348.013763,241.099945 
	C348.010010,233.997818 348.002106,234.000549 340.898529,234.002914 
	C287.591064,234.020767 234.283585,234.037460 180.294220,234.037567 
	C179.612320,234.020645 179.177216,233.975342 179.177216,233.975342 
	C179.177216,233.975342 179.069656,233.540146 179.058136,233.316376 
	C188.349594,233.020004 197.652557,232.887207 206.955566,232.884903 
	C253.990860,232.873245 301.026154,232.895523 348.523071,232.985962 
	C348.983643,287.008270 348.986908,340.950562 348.963074,394.892853 
	C348.962280,396.705078 348.687958,398.517181 348.317139,400.675659 
z"/>
<path fill="#3C370E" opacity="1.000000" stroke="none" 
	d="
M179.115692,239.466049 
	C179.451202,240.775436 179.963562,242.551056 179.965103,244.327133 
	C180.003052,287.917725 179.986771,331.508331 179.957855,375.572266 
	C179.935516,376.045624 179.558670,376.015137 179.369980,376.003601 
	C179.139038,330.638885 179.096786,285.285675 179.115692,239.466049 
z"/>
<path fill="#36372B" opacity="1.000000" stroke="none" 
	d="
M844.505981,309.935486 
	C845.417908,310.201141 845.872498,310.508636 846.526550,311.012207 
	C846.690186,336.095398 846.654358,360.982544 846.673889,386.314880 
	C841.621704,387.298767 836.514221,387.837433 831.209106,388.396912 
	C830.984619,386.213745 830.769836,385.093506 830.768799,383.973114 
	C830.748108,360.579254 830.744019,337.185394 830.773132,313.791565 
	C830.774536,312.659637 831.108765,311.528137 831.661377,310.146484 
	C836.039368,309.923462 840.044006,309.950378 844.505981,309.935486 
z"/>
<path fill="#3C370E" opacity="1.000000" stroke="none" 
	d="
M179.078247,234.253830 
	C179.177216,233.975342 179.612320,234.020645 179.828705,234.055954 
	C179.860321,234.901733 179.675537,235.712204 179.291504,236.767197 
	C179.017700,236.583618 178.943161,236.155502 178.816254,235.405075 
	C178.835678,234.899261 178.907486,234.715790 179.078247,234.253830 
z"/>
<path fill="#EEDD41" opacity="1.000000" stroke="none" 
	d="
M318.193512,373.055695 
	C318.511078,373.030212 318.755981,372.883453 319.302185,372.184265 
	C321.940674,365.481232 321.158783,363.189941 315.793213,360.340118 
	C312.731018,358.751709 309.760773,357.466553 306.845947,356.166565 
	C306.901428,356.151733 306.918671,356.265289 306.774780,355.921753 
	C305.298187,355.212830 303.965485,354.847473 302.682220,354.440857 
	C302.731628,354.399567 302.787842,354.515411 302.628998,354.196594 
	C301.618835,353.596924 300.767487,353.316040 299.950226,353.021088 
	C299.984283,353.007019 300.011597,353.075500 299.817078,352.851318 
	C299.078125,352.412811 298.533691,352.198547 297.998596,351.984375 
	C298.007935,351.984436 298.020416,351.998505 297.860931,351.791626 
	C297.399841,351.415314 297.098206,351.245850 296.818970,351.113831 
	C296.841309,351.151245 296.775238,351.208130 296.684814,350.885498 
	C290.960724,344.824036 285.867310,338.796967 287.077087,329.946625 
	C287.519043,326.713501 288.341583,323.532410 288.990540,320.327606 
	C290.618896,318.532623 292.247284,316.737610 294.485901,314.806152 
	C295.384857,314.406647 295.673584,314.143616 295.962280,313.880585 
	C295.962280,313.880585 295.948181,313.951324 296.322510,313.944489 
	C304.724335,311.020111 312.903992,311.799347 321.098236,312.933014 
	C321.098236,312.933014 321.039948,312.973969 321.212097,313.146179 
	C321.726410,313.422424 322.068634,313.526459 322.410828,313.630493 
	C322.410828,313.630493 322.291534,313.570312 322.368774,313.874176 
	C325.158661,317.840729 332.559235,319.984955 326.440033,326.508392 
	C326.440033,326.508392 326.296661,326.335632 326.017761,326.345947 
	C324.853271,327.121002 323.967712,327.885712 323.082153,328.650391 
	C320.658295,329.916107 319.019501,329.477264 316.678833,327.584106 
	C314.442566,325.775391 310.814880,325.686951 307.287109,324.514893 
	C304.781799,325.406586 301.802490,326.210632 301.066376,327.959076 
	C300.299683,329.780151 301.697479,332.512543 302.130829,334.854980 
	C302.112762,334.863525 302.143463,334.850983 302.188477,335.160339 
	C302.830414,335.983337 303.427368,336.496918 304.237305,337.073120 
	C304.450317,337.135712 304.887695,337.212372 304.887695,337.212372 
	C304.887695,337.212372 304.878998,337.134094 304.899353,337.313110 
	C304.919739,337.492157 305.064392,337.818329 305.243896,338.114563 
	C306.433563,338.855591 307.443787,339.300354 308.785095,339.838287 
	C312.874298,341.828857 316.475616,344.187958 320.422821,345.528809 
	C328.973480,348.433350 336.925720,358.403015 336.659363,367.264893 
	C336.552216,370.829895 335.423462,374.364227 334.759644,377.912506 
	C334.759644,377.912506 334.858459,377.893768 334.602722,378.038452 
	C333.710632,379.217621 333.074249,380.252075 332.437897,381.286530 
	C332.437897,381.286530 332.262543,381.347473 332.110657,381.544647 
	C331.775391,381.901581 331.630127,382.090668 331.522949,382.309021 
	C331.522949,382.309021 331.340363,382.356140 331.166870,382.569458 
	C330.782745,382.959015 330.613159,383.168457 330.484619,383.411133 
	C330.484619,383.411133 330.559753,383.619873 330.263306,383.677032 
	C329.605713,384.130951 329.244598,384.527710 328.883453,384.924469 
	C328.883453,384.924469 328.954987,384.962158 328.644165,385.009583 
	C327.501007,385.661438 326.668671,386.265869 325.836334,386.870300 
	C325.836334,386.870300 325.918121,386.900574 325.668579,386.903809 
	C325.139160,387.109955 324.859314,387.312836 324.579468,387.515747 
	C324.579468,387.515747 324.562195,387.465576 324.168884,387.578247 
	C312.113617,391.908081 300.895050,390.919220 290.111420,384.823639 
	C290.111420,384.823639 290.095032,384.905518 289.980713,384.651245 
	C289.386383,384.102264 288.906372,383.807526 288.426392,383.512817 
	C288.426392,383.512817 288.337158,383.534576 288.181030,383.257690 
	C287.114014,382.183746 286.203125,381.386688 285.292206,380.589661 
	C285.292206,380.589661 285.288452,380.722931 285.216125,380.382233 
	C285.633118,377.388672 279.465576,376.239288 283.504822,372.784698 
	C283.504822,372.784698 283.709167,372.741638 283.995361,372.433777 
	C286.415863,370.976898 288.716278,370.051178 290.640625,368.619812 
	C292.828247,366.992676 294.004333,367.074280 295.680115,369.443359 
	C300.741333,376.598663 310.967255,378.109314 318.193512,373.055695 
z"/>
<path fill="#EEDD44" opacity="1.000000" stroke="none" 
	d="
M228.612686,381.124725 
	C223.481140,376.272766 223.746033,374.756531 230.198914,371.855225 
	C232.125046,370.989227 234.025009,370.065033 236.237961,369.026154 
	C238.241959,370.917938 240.184097,373.512390 242.759811,375.035095 
	C249.529663,379.037231 255.774185,375.357635 255.859558,367.384277 
	C256.025421,351.888367 255.969147,336.390076 256.002319,320.892792 
	C256.008728,317.903137 256.003235,314.913452 256.003235,311.068359 
	C261.164246,311.068359 266.092224,311.068359 271.510376,311.566162 
	C272.030640,329.113708 272.242798,346.166260 271.981384,363.211487 
	C271.901520,368.415710 270.519531,373.599945 269.733887,378.793335 
	C269.733887,378.793335 269.898682,378.968414 269.581360,379.112061 
	C268.039429,380.829132 266.814789,382.402618 265.259094,384.055328 
	C263.281281,384.926025 261.634247,385.716919 259.987854,386.509033 
	C250.078827,391.276459 236.361923,388.922638 228.612686,381.124725 
z"/>
<path fill="#3C370E" opacity="1.000000" stroke="none" 
	d="
M270.073334,378.678864 
	C270.519531,373.599945 271.901520,368.415710 271.981384,363.211487 
	C272.242798,346.166260 272.030640,329.113708 271.972046,311.611786 
	C272.621704,312.641144 273.878723,314.118378 273.889893,315.604950 
	C274.023651,333.413330 274.145996,351.226349 273.809692,369.029480 
	C273.749298,372.227997 271.598450,375.387085 270.073334,378.678864 
z"/>
<path fill="#3C370E" opacity="1.000000" stroke="none" 
	d="
M335.099945,377.753235 
	C335.423462,374.364227 336.552216,370.829895 336.659363,367.264893 
	C336.925720,358.403015 328.973480,348.433350 320.422821,345.528809 
	C316.475616,344.187958 312.874298,341.828857 308.607056,339.616974 
	C307.636780,338.981995 307.175598,338.661499 306.792236,338.247314 
	C306.870117,338.153625 307.025055,337.965607 307.025055,337.965607 
	C316.692993,341.416473 326.661438,344.329346 333.424652,352.917694 
	C339.001190,359.999054 339.903595,370.910095 335.099945,377.753235 
z"/>
<path fill="#E6D969" opacity="1.000000" stroke="none" 
	d="
M228.463837,381.189575 
	C236.361923,388.922638 250.078827,391.276459 259.987854,386.509033 
	C261.634247,385.716919 263.281281,384.926025 265.147156,384.302734 
	C265.312653,384.643555 265.259003,384.816223 265.205383,384.988892 
	C256.230835,391.668579 246.111221,391.012878 236.208115,388.557739 
	C233.160828,387.802277 230.923294,383.780548 228.463837,381.189575 
z"/>
<path fill="#3C370E" opacity="1.000000" stroke="none" 
	d="
M317.761749,373.054077 
	C310.967255,378.109314 300.741333,376.598663 295.680115,369.443359 
	C294.004333,367.074280 292.828247,366.992676 290.640625,368.619812 
	C288.716278,370.051178 286.415863,370.976898 284.012939,372.330872 
	C286.217255,366.271851 293.491730,364.402191 297.606445,369.158936 
	C303.244110,375.676331 310.243896,374.369293 317.761749,373.054077 
z"/>
<path fill="#E6D969" opacity="1.000000" stroke="none" 
	d="
M288.829773,320.469604 
	C288.341583,323.532410 287.519043,326.713501 287.077087,329.946625 
	C285.867310,338.796967 290.960724,344.824036 296.385986,350.805145 
	C295.786499,351.027557 295.395386,351.007660 295.004303,350.987732 
	C285.486633,343.728119 282.990387,331.759338 288.829773,320.469604 
z"/>
<path fill="#3C370E" opacity="1.000000" stroke="none" 
	d="
M290.164062,385.174164 
	C300.895050,390.919220 312.113617,391.908081 324.142395,387.577698 
	C323.984100,388.221588 323.616272,389.416992 322.910400,389.670227 
	C312.032196,393.572906 301.523407,392.430573 291.411987,387.027283 
	C290.893890,386.750397 290.609772,386.035583 290.164062,385.174164 
z"/>
<path fill="#E6D969" opacity="1.000000" stroke="none" 
	d="
M320.832092,312.684204 
	C312.903992,311.799347 304.724335,311.020111 296.289246,313.930542 
	C303.843201,309.005768 312.108002,309.118774 320.832092,312.684204 
z"/>
<path fill="#E6D969" opacity="1.000000" stroke="none" 
	d="
M326.747498,326.364288 
	C332.559235,319.984955 325.158661,317.840729 322.410034,313.821594 
	C327.011932,315.000763 330.275391,317.912659 331.659607,323.378174 
	C330.318695,324.205780 328.686829,325.212982 326.747498,326.364288 
z"/>
<path fill="#C7BB49" opacity="1.000000" stroke="none" 
	d="
M302.148926,334.846466 
	C301.697479,332.512543 300.299683,329.780151 301.066376,327.959076 
	C301.802490,326.210632 304.781799,325.406586 306.868713,324.424438 
	C305.829590,325.650970 304.697113,326.640564 302.921783,328.007935 
	C302.235596,330.539307 302.192261,332.692871 302.148926,334.846466 
z"/>
<path fill="#3C370E" opacity="1.000000" stroke="none" 
	d="
M315.885162,360.643372 
	C321.158783,363.189941 321.940674,365.481232 319.371094,371.974731 
	C319.299530,368.155975 318.624390,364.439819 315.185852,361.288452 
	C315.062073,360.911682 315.221436,360.716888 315.387939,360.703430 
	C315.554443,360.690002 315.885162,360.643372 315.885162,360.643372 
z"/>
<path fill="#3C370E" opacity="1.000000" stroke="none" 
	d="
M283.133606,372.627350 
	C279.465576,376.239288 285.633118,377.388672 285.281677,380.370178 
	C283.822266,379.386749 281.796387,378.346252 280.745483,376.687866 
	C279.646179,374.953094 278.956451,372.362000 283.133606,372.627350 
z"/>
<path fill="#3C370E" opacity="1.000000" stroke="none" 
	d="
M265.592407,384.887390 
	C265.259003,384.816223 265.312653,384.643555 265.478210,384.223450 
	C266.814789,382.402618 268.039429,380.829132 269.503906,379.025940 
	C268.488983,380.792755 267.234222,382.789337 265.592407,384.887390 
z"/>
<path fill="#3C370E" opacity="1.000000" stroke="none" 
	d="
M302.130859,334.854980 
	C302.192261,332.692871 302.235596,330.539307 302.645020,328.197693 
	C303.294800,330.412872 303.578552,332.816010 303.872681,335.663269 
	C303.883057,336.107361 303.765350,336.212891 303.532227,336.080872 
	C302.913879,335.582886 302.528656,335.216919 302.143463,334.850983 
	C302.143463,334.850983 302.112762,334.863525 302.130859,334.854980 
z"/>
<path fill="#3C370E" opacity="1.000000" stroke="none" 
	d="
M304.025330,355.977783 
	C302.799957,355.515259 301.574615,355.052765 300.226562,354.239990 
	C300.103821,353.889740 300.233429,353.756165 300.559143,353.822021 
	C301.519196,354.097076 302.153534,354.306244 302.787842,354.515411 
	C302.787842,354.515411 302.731628,354.399567 302.866455,354.618408 
	C303.417969,355.120422 303.834656,355.403564 304.194336,355.759033 
	C304.137329,355.831390 304.025330,355.977753 304.025330,355.977783 
z"/>
<path fill="#3C370E" opacity="1.000000" stroke="none" 
	d="
M285.345886,380.947754 
	C286.203125,381.386688 287.114014,382.183746 288.203247,383.217529 
	C287.387604,382.738098 286.393585,382.021973 285.345886,380.947754 
z"/>
<path fill="#E6D969" opacity="1.000000" stroke="none" 
	d="
M323.353027,328.572266 
	C323.967712,327.885712 324.853271,327.121002 326.065399,326.447601 
	C325.469299,327.190674 324.546600,327.842407 323.353027,328.572266 
z"/>
<path fill="#3C370E" opacity="1.000000" stroke="none" 
	d="
M308.022705,357.968750 
	C306.806396,357.499054 305.590118,357.029358 304.199585,356.268707 
	C304.025330,355.977753 304.137329,355.831390 304.532593,355.807434 
	C305.591461,355.944061 306.255066,356.104675 306.918671,356.265289 
	C306.918671,356.265289 306.901428,356.151733 307.000549,356.382690 
	C307.554840,356.879913 308.009949,357.146118 308.354614,357.551544 
	C308.244141,357.690735 308.022705,357.968750 308.022705,357.968750 
z"/>
<path fill="#3C370E" opacity="1.000000" stroke="none" 
	d="
M332.796753,381.316620 
	C333.074249,380.252075 333.710632,379.217621 334.587433,377.990570 
	C334.270416,378.980896 333.712982,380.163818 332.796753,381.316620 
z"/>
<path fill="#3C370E" opacity="1.000000" stroke="none" 
	d="
M326.193176,386.894653 
	C326.668671,386.265869 327.501007,385.661438 328.633240,384.970642 
	C328.138794,385.562531 327.344391,386.240784 326.193176,386.894653 
z"/>
<path fill="#3C370E" opacity="1.000000" stroke="none" 
	d="
M295.162415,351.260132 
	C295.395386,351.007660 295.786499,351.027557 296.476410,351.127808 
	C296.775238,351.208130 296.841309,351.151245 296.923553,351.375275 
	C297.343994,351.732361 297.682220,351.865417 298.020416,351.998505 
	C298.020416,351.998505 298.007935,351.984436 298.091400,352.148254 
	C298.174866,352.312073 298.311249,352.662781 298.221283,352.762390 
	C298.131317,352.861969 297.953033,353.062683 297.953033,353.062683 
	C297.075562,352.552612 296.198059,352.042572 295.162415,351.260132 
z"/>
<path fill="#3C370E" opacity="1.000000" stroke="none" 
	d="
M310.933380,359.096008 
	C310.114685,358.872345 309.295959,358.648682 308.250000,358.196899 
	C308.022705,357.968750 308.244141,357.690735 308.655457,357.629608 
	C309.799011,357.935364 310.531250,358.302246 311.180481,358.775482 
	C311.097473,358.881805 310.933380,359.096008 310.933380,359.096008 
z"/>
<path fill="#3C370E" opacity="1.000000" stroke="none" 
	d="
M329.185974,384.878082 
	C329.244598,384.527710 329.605713,384.130951 330.198792,383.586792 
	C330.116699,383.903473 329.802612,384.367584 329.185974,384.878082 
z"/>
<path fill="#3C370E" opacity="1.000000" stroke="none" 
	d="
M288.505554,383.811829 
	C288.906372,383.807526 289.386383,384.102264 290.019470,384.635681 
	C289.643280,384.619873 289.113983,384.365356 288.505554,383.811829 
z"/>
<path fill="#3C370E" opacity="1.000000" stroke="none" 
	d="
M305.064392,337.818329 
	C305.064392,337.818329 304.919739,337.492157 304.861450,337.323608 
	C305.389801,337.289886 305.976501,337.424713 306.794128,337.762573 
	C307.025055,337.965607 306.870117,338.153625 306.517944,338.156067 
	C305.798645,338.045135 305.431519,337.931732 305.064392,337.818329 
z"/>
<path fill="#3C370E" opacity="1.000000" stroke="none" 
	d="
M300.038513,353.956055 
	C299.441345,353.830078 298.909515,353.637817 298.165344,353.254120 
	C297.953033,353.062683 298.131317,352.861969 298.504822,352.834839 
	C299.256073,352.896942 299.633850,352.986237 300.011597,353.075500 
	C300.011597,353.075500 299.984283,353.007019 300.035736,353.198669 
	C300.087189,353.390350 300.233429,353.756165 300.233429,353.756165 
	C300.233429,353.756165 300.103821,353.889740 300.038513,353.956055 
z"/>
<path fill="#3C370E" opacity="1.000000" stroke="none" 
	d="
M314.981415,361.008240 
	C314.390137,360.879059 313.879547,360.653290 313.254578,360.131348 
	C313.140259,359.835236 313.294434,359.658173 313.570984,359.719391 
	C314.305511,360.092712 314.763458,360.404785 315.221436,360.716888 
	C315.221436,360.716888 315.062073,360.911682 314.981415,361.008240 
z"/>
<path fill="#3C370E" opacity="1.000000" stroke="none" 
	d="
M313.062683,359.923340 
	C312.447083,359.829926 311.909058,359.648407 311.152191,359.281433 
	C310.933380,359.096008 311.097473,358.881805 311.464203,358.831848 
	C312.318756,359.073975 312.806610,359.366058 313.294434,359.658173 
	C313.294434,359.658173 313.140259,359.835236 313.062683,359.923340 
z"/>
<path fill="#E6D969" opacity="1.000000" stroke="none" 
	d="
M295.665741,313.939209 
	C295.673584,314.143616 295.384857,314.406647 294.807922,314.739807 
	C294.802856,314.539185 295.086029,314.268494 295.665741,313.939209 
z"/>
<path fill="#3C370E" opacity="1.000000" stroke="none" 
	d="
M304.792969,336.975220 
	C304.887695,337.212372 304.450317,337.135712 304.173248,336.873413 
	C303.896179,336.611115 303.765350,336.212891 303.765350,336.212891 
	C303.765350,336.212891 303.883057,336.107361 303.942291,336.055115 
	C304.233765,336.247925 304.465973,336.492981 304.792969,336.975220 
z"/>
<path fill="#3C370E" opacity="1.000000" stroke="none" 
	d="
M324.849609,387.499969 
	C324.859314,387.312836 325.139160,387.109955 325.679504,386.861572 
	C325.666565,387.038818 325.393188,387.261536 324.849609,387.499969 
z"/>
<path fill="#3C370E" opacity="1.000000" stroke="none" 
	d="
M330.723755,383.385620 
	C330.613159,383.168457 330.782745,382.959015 331.154785,382.662964 
	C331.406677,382.905487 331.288940,383.177795 330.723755,383.385620 
z"/>
<path fill="#E6D969" opacity="1.000000" stroke="none" 
	d="
M322.244781,313.410492 
	C322.068634,313.526459 321.726410,313.422424 321.209351,313.110687 
	C321.382599,312.998779 321.730652,313.094635 322.244781,313.410492 
z"/>
<path fill="#3C370E" opacity="1.000000" stroke="none" 
	d="
M331.745697,382.304871 
	C331.630127,382.090668 331.775391,381.901581 332.105164,381.637329 
	C332.373016,381.868805 332.278656,382.124756 331.745697,382.304871 
z"/>
<path fill="#E6D969" opacity="1.000000" stroke="none" 
	d="
M313.570984,359.719391 
	C312.806610,359.366058 312.318756,359.073975 311.547211,358.725525 
	C310.531250,358.302246 309.799011,357.935364 308.765930,357.490417 
	C308.009949,357.146118 307.554840,356.879913 306.945099,356.397522 
	C309.760773,357.466553 312.731018,358.751709 315.793213,360.340118 
	C315.885162,360.643372 315.554443,360.690002 315.387939,360.703430 
	C314.763458,360.404785 314.305511,360.092712 313.570984,359.719391 
z"/>
<path fill="#E6D969" opacity="1.000000" stroke="none" 
	d="
M306.774780,355.921753 
	C306.255066,356.104675 305.591461,355.944061 304.589600,355.735077 
	C303.834656,355.403564 303.417969,355.120422 302.817017,354.659668 
	C303.965485,354.847473 305.298187,355.212830 306.774780,355.921753 
z"/>
<path fill="#C7BB49" opacity="1.000000" stroke="none" 
	d="
M305.243896,338.114563 
	C305.431519,337.931732 305.798645,338.045135 306.440063,338.249756 
	C307.175598,338.661499 307.636780,338.981995 308.276001,339.523834 
	C307.443787,339.300354 306.433563,338.855591 305.243896,338.114563 
z"/>
<path fill="#E6D969" opacity="1.000000" stroke="none" 
	d="
M300.559143,353.822021 
	C300.233429,353.756165 300.087189,353.390350 300.001678,353.212769 
	C300.767487,353.316040 301.618835,353.596924 302.628998,354.196594 
	C302.153534,354.306244 301.519196,354.097076 300.559143,353.822021 
z"/>
<path fill="#C7BB49" opacity="1.000000" stroke="none" 
	d="
M303.532227,336.080872 
	C303.765350,336.212891 303.896179,336.611115 303.960266,336.810791 
	C303.427368,336.496918 302.830414,335.983337 302.188477,335.160339 
	C302.528656,335.216919 302.913879,335.582886 303.532227,336.080872 
z"/>
<path fill="#E6D969" opacity="1.000000" stroke="none" 
	d="
M299.817078,352.851318 
	C299.633850,352.986237 299.256073,352.896942 298.594788,352.735229 
	C298.311249,352.662781 298.174866,352.312073 298.082031,352.148193 
	C298.533691,352.198547 299.078125,352.412811 299.817078,352.851318 
z"/>
<path fill="#E6D969" opacity="1.000000" stroke="none" 
	d="
M297.860931,351.791626 
	C297.682220,351.865417 297.343994,351.732361 296.901184,351.337830 
	C297.098206,351.245850 297.399841,351.415314 297.860931,351.791626 
z"/>
</svg>