<svg version="1.1" id="Layer_1" xmlns="http://www.w3.org/2000/svg" xmlns:xlink="http://www.w3.org/1999/xlink" x="0px" y="0px"
	 width="100%" viewBox="0 0 1024 635" enable-background="new 0 0 1024 635" xml:space="preserve">
<path fill="#F0DE3E" opacity="1.000000" stroke="none" 
	d="
M670.000000,636.000000 
	C446.666748,636.000000 223.833466,636.000000 1.000149,636.000000 
	C1.000100,424.333466 1.000100,212.666931 1.000050,1.000291 
	C342.333099,1.000194 683.666199,1.000194 1024.999512,1.000097 
	C1024.999634,212.666382 1024.999634,424.332764 1024.999756,635.999573 
	C906.833313,636.000000 788.666687,636.000000 670.000000,636.000000 
M709.471436,388.321655 
	C709.635437,387.520325 709.940552,386.719330 709.942444,385.917603 
	C709.974548,372.201721 709.994202,358.485565 709.929810,344.769928 
	C709.923950,343.522644 709.324829,342.278137 708.420776,340.409912 
	C703.368103,340.409912 698.315430,340.409912 693.246643,340.409912 
	C693.246643,357.307190 693.246643,373.957947 693.246643,391.009918 
	C697.370667,391.009918 701.165405,391.188385 704.927673,390.916840 
	C706.316895,390.816589 707.629517,389.656616 709.471436,388.321655 
M217.002136,233.037979 
	C217.002136,233.037979 217.010529,233.004791 216.285339,233.308151 
	C215.855667,235.324905 215.053299,237.341187 215.050720,239.358490 
	C214.982635,292.509613 214.997284,345.660858 214.997757,398.812103 
	C214.997757,400.303406 214.997742,401.794708 214.997742,403.286011 
	C215.326065,403.273163 215.654373,403.260315 215.982697,403.247467 
	C215.982697,401.443237 215.982712,399.638977 215.982697,397.834717 
	C215.982056,345.683197 215.972946,293.531677 216.011215,241.380188 
	C216.012772,239.256348 216.460602,237.132812 216.913269,235.478714 
	C216.974289,235.639603 217.035294,235.800476 216.927078,236.890244 
	C216.928589,282.540009 216.922668,328.189789 216.937241,373.839569 
	C216.940536,384.165619 217.015060,394.491669 217.658371,405.388458 
	C219.450424,405.593506 221.242371,405.976685 223.034546,405.977753 
	C275.749969,406.008911 328.465393,406.011719 381.180786,405.963135 
	C383.108337,405.961365 385.035400,405.396912 387.357086,404.901062 
	C387.357086,404.901062 387.796204,404.887207 388.379150,404.311249 
	C388.602783,402.524353 389.020660,400.737549 389.021820,398.950500 
	C389.056030,345.877197 389.059845,292.803833 389.004364,239.730545 
	C389.002380,237.817947 388.352325,235.906036 388.001373,234.084900 
	C388.001373,234.084900 387.910187,234.086243 387.962677,233.591293 
	C387.962677,233.591293 387.937775,233.094894 387.312256,232.556305 
	C385.845398,232.373505 384.378662,232.031631 382.911713,232.030899 
	C329.358215,232.004028 275.804749,231.999008 222.251297,232.053391 
	C220.511002,232.055145 218.771362,232.707581 217.002136,233.037979 
M788.360229,372.756866 
	C790.025818,372.184509 791.679199,371.165955 793.359314,371.119812 
	C799.467224,370.952118 805.587341,371.244263 811.696289,371.094818 
	C815.410645,371.003967 819.112854,370.420807 823.318604,369.423401 
	C825.200500,354.051727 816.384155,341.760162 801.702698,339.286896 
	C787.206665,336.844879 773.139343,345.587433 770.132202,358.907257 
	C766.946106,373.019928 774.560852,386.008881 788.675232,389.653351 
	C799.877014,392.545776 810.594849,391.627075 820.170898,383.647644 
	C817.002502,380.242035 814.191895,377.221039 811.358398,374.175446 
	C809.427368,375.061829 807.817932,375.921112 806.124634,376.557098 
	C798.781006,379.315155 792.122925,378.140869 788.360229,372.756866 
M600.431274,389.565857 
	C605.502502,389.565857 610.573730,389.565857 616.060852,389.565857 
	C616.060852,387.115784 616.055115,384.815613 616.061890,382.515503 
	C616.082397,375.523224 615.904541,368.522491 616.196411,361.541412 
	C616.424133,356.094452 619.630554,353.368073 624.920288,353.372223 
	C630.033630,353.376221 632.480042,355.837799 632.799866,361.588043 
	C632.975220,364.742249 632.865662,367.912811 632.868896,371.075989 
	C632.875305,377.321106 632.870850,383.566254 632.870850,389.772339 
	C638.449463,389.772339 643.215210,389.772339 648.495361,389.772339 
	C648.495361,387.879852 648.480774,386.247894 648.497803,384.616302 
	C648.580933,376.629272 648.410217,368.627716 648.855164,360.660645 
	C649.142090,355.525696 652.515930,353.139282 657.719116,353.381195 
	C662.502930,353.603607 664.727234,355.837036 665.029663,361.021118 
	C665.213684,364.174988 665.146790,367.344696 665.154297,370.507385 
	C665.169556,376.930847 665.158875,383.354401 665.158875,389.659058 
	C670.857117,389.659058 675.760803,389.659058 680.867493,389.659058 
	C680.867493,378.980682 681.186707,368.666290 680.760864,358.382721 
	C680.451782,350.918274 677.694702,344.268707 670.274231,340.939392 
	C662.898010,337.630005 655.674072,338.250885 648.957153,342.882111 
	C647.239929,344.066101 645.727844,345.547607 643.950378,347.035706 
	C640.702881,341.989777 636.479675,339.189697 630.661133,338.958466 
	C624.745056,338.723389 620.316589,341.566772 616.191772,346.379761 
	C616.018188,343.732941 615.905518,342.015625 615.739380,339.483276 
	C610.191162,340.065979 605.053406,340.605560 599.430115,341.782074 
	C599.315063,356.884003 599.190552,371.985901 599.120728,387.088013 
	C599.117981,387.676788 599.639832,388.267975 600.431274,389.565857 
M450.403809,309.645660 
	C441.654968,309.756378 432.906128,309.867126 423.697418,310.671997 
	C423.566223,311.653656 423.321350,312.635223 423.320435,313.617004 
	C423.297943,337.783508 423.297028,361.950012 423.313538,386.116547 
	C423.314301,387.247131 423.511444,388.377625 423.631348,389.659943 
	C429.073792,389.659943 434.270142,389.659943 440.085693,389.659943 
	C440.085693,383.557770 440.085693,377.830994 440.085693,372.271576 
	C445.191772,371.844025 449.687225,371.640717 454.134216,371.064087 
	C470.116577,368.991852 480.472870,358.186646 481.049805,343.157349 
	C481.703583,326.125061 472.930237,314.777893 456.380707,311.264984 
	C454.602814,310.887573 452.814270,310.560394 450.403809,309.645660 
M549.727356,388.924866 
	C551.804749,389.495758 553.854431,390.211578 555.963989,390.613953 
	C569.376038,393.172180 582.909790,385.862579 587.037781,373.899048 
	C591.695496,360.400696 585.300903,346.217834 572.229370,341.054718 
	C557.900208,335.394806 541.563538,341.387878 535.740173,354.440704 
	C529.833557,367.680023 535.284424,381.719757 549.727356,388.924866 
M749.071350,353.851898 
	C752.431885,351.480957 755.792358,349.109985 759.591370,346.429718 
	C751.181335,338.901306 742.634216,337.775024 733.431580,339.907227 
	C726.047791,341.617981 722.117310,346.241211 721.526855,353.392395 
	C720.916565,360.784149 724.126770,366.265015 731.244751,369.069031 
	C735.084045,370.581421 739.251038,371.248444 743.137817,372.660980 
	C744.592896,373.189819 745.672424,374.751678 746.923218,375.842560 
	C745.512512,376.746826 743.963013,378.579376 742.715393,378.392761 
	C737.626648,377.631805 732.630249,376.253143 726.287720,374.801819 
	C724.666870,376.247192 721.764709,378.835114 718.877197,381.409943 
	C726.952637,391.096893 744.641479,394.421082 754.726379,387.965363 
	C757.429260,386.235107 759.870178,383.064789 760.951904,380.028442 
	C764.051514,371.328827 760.481506,364.132874 751.781006,360.821991 
	C747.456177,359.176239 742.805420,358.402618 738.412048,356.910675 
	C737.304077,356.534424 736.618591,354.914124 735.738953,353.865509 
	C736.809753,352.991119 737.965454,351.293030 738.935852,351.393036 
	C742.157166,351.724945 745.311829,352.703888 749.071350,353.851898 
M858.920288,390.715393 
	C869.425659,388.351410 873.764648,383.824219 873.945496,375.038513 
	C874.107910,367.149231 869.659973,362.177399 859.868164,359.420288 
	C856.988098,358.609375 853.952515,358.240479 851.196716,357.144653 
	C849.804016,356.590820 848.876648,354.866699 847.738892,353.671753 
	C849.207642,352.826874 850.773132,351.143951 852.126404,351.300140 
	C855.660400,351.707916 859.101562,352.920471 863.378601,354.016907 
	C865.408936,351.831757 868.083130,348.953674 870.957031,345.860626 
	C863.495483,339.133392 855.259521,337.870636 846.356567,339.705444 
	C838.240479,341.378113 834.106079,345.964661 833.517822,353.471008 
	C832.915466,361.156708 836.484314,366.689209 844.251099,369.526123 
	C847.671875,370.775604 851.375916,371.255859 854.782898,372.534302 
	C856.364380,373.127716 857.543518,374.793365 858.905090,375.972961 
	C857.289001,376.857086 855.523315,378.683044 854.084045,378.454376 
	C849.143311,377.669342 844.316895,376.164581 838.430908,374.677490 
	C836.645935,376.253387 833.795715,378.769775 830.668762,381.530457 
	C838.178955,390.141754 847.708923,391.644989 858.920288,390.715393 
M491.150452,376.493134 
	C491.150452,381.249756 491.150452,386.006378 491.150452,391.001404 
	C495.481628,391.001404 498.979950,390.829224 502.453369,391.049713 
	C505.947632,391.271484 507.209229,389.901031 507.116089,386.435303 
	C506.941711,379.947601 506.997253,373.450592 507.092987,366.959442 
	C507.253510,356.077484 512.239685,352.254150 522.805420,354.758057 
	C523.240845,354.861206 523.740662,354.692871 524.486450,354.626434 
	C526.024292,350.155182 527.565674,345.673492 529.206787,340.901886 
	C520.070618,336.986298 513.097290,339.284088 507.407196,347.078156 
	C506.717529,339.991608 506.717529,339.991547 500.021484,339.988953 
	C498.689697,339.988434 497.356018,340.034149 496.026459,339.979553 
	C492.484833,339.834137 491.037720,341.372864 491.096924,345.031128 
	C491.261230,355.183411 491.151733,365.340118 491.150452,376.493134 
M695.256775,313.475189 
	C688.632935,319.444336 689.639526,328.495331 697.286743,330.991241 
	C701.822510,332.471680 705.946655,331.586517 708.840637,327.577148 
	C711.557495,323.813110 711.506470,319.777191 708.882019,315.941498 
	C706.197937,312.018677 701.666077,311.086884 695.256775,313.475189 
z"/>
<path fill="#38382A" opacity="1.000000" stroke="none" 
	d="
M451.030670,310.209900 
	C452.814270,310.560394 454.602814,310.887573 456.380707,311.264984 
	C472.930237,314.777893 481.703583,326.125061 481.049805,343.157349 
	C480.472870,358.186646 470.116577,368.991852 454.134216,371.064087 
	C449.687225,371.640717 445.191772,371.844025 440.085693,372.271576 
	C440.085693,377.830994 440.085693,383.557770 440.085693,389.659943 
	C434.270142,389.659943 429.073792,389.659943 423.631348,389.659943 
	C423.511444,388.377625 423.314301,387.247131 423.313538,386.116547 
	C423.297028,361.950012 423.297943,337.783508 423.320435,313.617004 
	C423.321350,312.635223 423.566223,311.653656 424.374634,310.380127 
	C433.711426,310.128784 442.371063,310.169342 451.030670,310.209900 
M462.469574,349.595886 
	C464.967743,342.702454 465.636108,335.712341 460.471222,329.904419 
	C455.036713,323.793243 447.532745,324.525421 440.213196,324.956512 
	C440.213196,335.995605 440.213196,346.512115 440.213196,357.340607 
	C448.500183,357.152557 456.711609,358.245300 462.469574,349.595886 
z"/>
<path fill="#353628" opacity="1.000000" stroke="none" 
	d="
M599.915588,341.145142 
	C605.053406,340.605560 610.191162,340.065979 615.739380,339.483276 
	C615.905518,342.015625 616.018188,343.732941 616.191772,346.379761 
	C620.316589,341.566772 624.745056,338.723389 630.661133,338.958466 
	C636.479675,339.189697 640.702881,341.989777 643.950378,347.035706 
	C645.727844,345.547607 647.239929,344.066101 648.957153,342.882111 
	C655.674072,338.250885 662.898010,337.630005 670.274231,340.939392 
	C677.694702,344.268707 680.451782,350.918274 680.760864,358.382721 
	C681.186707,368.666290 680.867493,378.980682 680.867493,389.659058 
	C675.760803,389.659058 670.857117,389.659058 665.158875,389.659058 
	C665.158875,383.354401 665.169556,376.930847 665.154297,370.507385 
	C665.146790,367.344696 665.213684,364.174988 665.029663,361.021118 
	C664.727234,355.837036 662.502930,353.603607 657.719116,353.381195 
	C652.515930,353.139282 649.142090,355.525696 648.855164,360.660645 
	C648.410217,368.627716 648.580933,376.629272 648.497803,384.616302 
	C648.480774,386.247894 648.495361,387.879852 648.495361,389.772339 
	C643.215210,389.772339 638.449463,389.772339 632.870850,389.772339 
	C632.870850,383.566254 632.875305,377.321106 632.868896,371.075989 
	C632.865662,367.912811 632.975220,364.742249 632.799866,361.588043 
	C632.480042,355.837799 630.033630,353.376221 624.920288,353.372223 
	C619.630554,353.368073 616.424133,356.094452 616.196411,361.541412 
	C615.904541,368.522491 616.082397,375.523224 616.061890,382.515503 
	C616.055115,384.815613 616.060852,387.115784 616.060852,389.565857 
	C610.573730,389.565857 605.502502,389.565857 600.257935,388.764709 
	C600.028198,372.357452 599.971924,356.751312 599.915588,341.145142 
z"/>
<path fill="#363728" opacity="1.000000" stroke="none" 
	d="
M787.874146,373.415710 
	C792.122925,378.140869 798.781006,379.315155 806.124634,376.557098 
	C807.817932,375.921112 809.427368,375.061829 811.358398,374.175446 
	C814.191895,377.221039 817.002502,380.242035 820.170898,383.647644 
	C810.594849,391.627075 799.877014,392.545776 788.675232,389.653351 
	C774.560852,386.008881 766.946106,373.019928 770.132202,358.907257 
	C773.139343,345.587433 787.206665,336.844879 801.702698,339.286896 
	C816.384155,341.760162 825.200500,354.051727 822.623413,369.690125 
	C810.078003,369.956879 798.227905,369.956879 785.535156,369.956879 
	C786.673523,371.640320 787.273865,372.528015 787.874146,373.415710 
M789.899231,360.777740 
	C795.632019,360.777740 801.364807,360.777740 807.202515,360.777740 
	C806.169739,354.910706 803.894348,352.604614 799.190491,352.046661 
	C793.241272,351.340942 788.139893,353.681732 786.432068,357.758514 
	C785.227722,360.633301 786.875427,360.856689 789.899231,360.777740 
z"/>
<path fill="#353628" opacity="1.000000" stroke="none" 
	d="
M549.370117,388.776123 
	C535.284424,381.719757 529.833557,367.680023 535.740173,354.440704 
	C541.563538,341.387878 557.900208,335.394806 572.229370,341.054718 
	C585.300903,346.217834 591.695496,360.400696 587.037781,373.899048 
	C582.909790,385.862579 569.376038,393.172180 555.963989,390.613953 
	C553.854431,390.211578 551.804749,389.495758 549.370117,388.776123 
M572.023560,362.030762 
	C570.002625,354.911041 566.036621,351.964050 559.517334,352.737823 
	C553.386292,353.465576 549.753967,358.046112 549.742615,365.064392 
	C549.731384,372.025085 553.275208,376.634583 559.393433,377.617401 
	C567.410767,378.905243 572.531555,372.980194 572.023560,362.030762 
z"/>
<path fill="#363728" opacity="1.000000" stroke="none" 
	d="
M748.781738,353.643280 
	C745.311829,352.703888 742.157166,351.724945 738.935852,351.393036 
	C737.965454,351.293030 736.809753,352.991119 735.738953,353.865509 
	C736.618591,354.914124 737.304077,356.534424 738.412048,356.910675 
	C742.805420,358.402618 747.456177,359.176239 751.781006,360.821991 
	C760.481506,364.132874 764.051514,371.328827 760.951904,380.028442 
	C759.870178,383.064789 757.429260,386.235107 754.726379,387.965363 
	C744.641479,394.421082 726.952637,391.096893 718.877197,381.409943 
	C721.764709,378.835114 724.666870,376.247192 726.287720,374.801819 
	C732.630249,376.253143 737.626648,377.631805 742.715393,378.392761 
	C743.963013,378.579376 745.512512,376.746826 746.923218,375.842560 
	C745.672424,374.751678 744.592896,373.189819 743.137817,372.660980 
	C739.251038,371.248444 735.084045,370.581421 731.244751,369.069031 
	C724.126770,366.265015 720.916565,360.784149 721.526855,353.392395 
	C722.117310,346.241211 726.047791,341.617981 733.431580,339.907227 
	C742.634216,337.775024 751.181335,338.901306 759.591370,346.429718 
	C755.792358,349.109985 752.431885,351.480957 748.781738,353.643280 
z"/>
<path fill="#363728" opacity="1.000000" stroke="none" 
	d="
M858.479675,390.780273 
	C847.708923,391.644989 838.178955,390.141754 830.668762,381.530457 
	C833.795715,378.769775 836.645935,376.253387 838.430908,374.677490 
	C844.316895,376.164581 849.143311,377.669342 854.084045,378.454376 
	C855.523315,378.683044 857.289001,376.857086 858.905090,375.972961 
	C857.543518,374.793365 856.364380,373.127716 854.782898,372.534302 
	C851.375916,371.255859 847.671875,370.775604 844.251099,369.526123 
	C836.484314,366.689209 832.915466,361.156708 833.517822,353.471008 
	C834.106079,345.964661 838.240479,341.378113 846.356567,339.705444 
	C855.259521,337.870636 863.495483,339.133392 870.957031,345.860626 
	C868.083130,348.953674 865.408936,351.831757 863.378601,354.016907 
	C859.101562,352.920471 855.660400,351.707916 852.126404,351.300140 
	C850.773132,351.143951 849.207642,352.826874 847.738892,353.671753 
	C848.876648,354.866699 849.804016,356.590820 851.196716,357.144653 
	C853.952515,358.240479 856.988098,358.609375 859.868164,359.420288 
	C869.659973,362.177399 874.107910,367.149231 873.945496,375.038513 
	C873.764648,383.824219 869.425659,388.351410 858.479675,390.780273 
z"/>
<path fill="#363728" opacity="1.000000" stroke="none" 
	d="
M491.150452,375.994080 
	C491.151733,365.340118 491.261230,355.183411 491.096924,345.031128 
	C491.037720,341.372864 492.484833,339.834137 496.026459,339.979553 
	C497.356018,340.034149 498.689697,339.988434 500.021484,339.988953 
	C506.717529,339.991547 506.717529,339.991608 507.407196,347.078156 
	C513.097290,339.284088 520.070618,336.986298 529.206787,340.901886 
	C527.565674,345.673492 526.024292,350.155182 524.486450,354.626434 
	C523.740662,354.692871 523.240845,354.861206 522.805420,354.758057 
	C512.239685,352.254150 507.253510,356.077484 507.092987,366.959442 
	C506.997253,373.450592 506.941711,379.947601 507.116089,386.435303 
	C507.209229,389.901031 505.947632,391.271484 502.453369,391.049713 
	C498.979950,390.829224 495.481628,391.001404 491.150452,391.001404 
	C491.150452,386.006378 491.150452,381.249756 491.150452,375.994080 
z"/>
<path fill="#3C3A15" opacity="1.000000" stroke="none" 
	d="
M217.056793,404.817719 
	C217.015060,394.491669 216.940536,384.165619 216.937241,373.839569 
	C216.922668,328.189789 216.928589,282.540009 217.235214,236.452881 
	C217.543350,236.015518 217.991852,236.054871 217.993286,236.517303 
	C217.995697,290.142120 217.994568,343.304535 218.000351,396.466949 
	C218.001053,403.006927 218.018204,403.022369 224.675735,403.023071 
	C276.338287,403.028687 328.001099,402.958984 379.663055,403.136993 
	C384.756012,403.154510 386.136475,401.673370 386.120392,396.637573 
	C385.948364,342.809082 386.008972,288.979858 386.010315,234.886520 
	C386.005035,234.446259 385.995209,234.270309 386.303284,234.027130 
	C387.050842,234.001999 387.480530,234.044113 387.910187,234.086243 
	C387.910187,234.086243 388.001373,234.084900 388.015045,234.508530 
	C388.018158,289.923340 388.009369,344.914490 387.988708,399.905670 
	C387.988068,401.566223 387.863159,403.226685 387.796204,404.887207 
	C387.796204,404.887207 387.357086,404.901062 386.698547,404.928894 
	C329.712280,404.910400 273.384521,404.864075 217.056793,404.817719 
z"/>
<path fill="#38382A" opacity="1.000000" stroke="none" 
	d="
M695.593750,313.279419 
	C701.666077,311.086884 706.197937,312.018677 708.882019,315.941498 
	C711.506470,319.777191 711.557495,323.813110 708.840637,327.577148 
	C705.946655,331.586517 701.822510,332.471680 697.286743,330.991241 
	C689.639526,328.495331 688.632935,319.444336 695.593750,313.279419 
z"/>
<path fill="#FCEB4C" opacity="1.000000" stroke="none" 
	d="
M216.700516,235.009140 
	C216.460602,237.132812 216.012772,239.256348 216.011215,241.380188 
	C215.972946,293.531677 215.982056,345.683197 215.982697,397.834717 
	C215.982712,399.638977 215.982697,401.443237 215.982697,403.247467 
	C215.654373,403.260315 215.326065,403.273163 214.997742,403.286011 
	C214.997742,401.794708 214.997757,400.303406 214.997757,398.812103 
	C214.997284,345.660858 214.982635,292.509613 215.050720,239.358490 
	C215.053299,237.341187 215.855667,235.324905 216.642914,233.415192 
	C217.019318,233.693832 217.038132,233.865433 216.972000,234.281586 
	C216.824890,234.687134 216.762695,234.848145 216.700516,235.009140 
z"/>
<path fill="#F2E366" opacity="1.000000" stroke="none" 
	d="
M388.087677,404.599243 
	C387.863159,403.226685 387.988068,401.566223 387.988708,399.905670 
	C388.009369,344.914490 388.018158,289.923340 388.016510,234.462982 
	C388.352325,235.906036 389.002380,237.817947 389.004364,239.730545 
	C389.059845,292.803833 389.056030,345.877197 389.021820,398.950500 
	C389.020660,400.737549 388.602783,402.524353 388.087677,404.599243 
z"/>
<path fill="#BBB55F" opacity="1.000000" stroke="none" 
	d="
M217.056931,234.037018 
	C217.038132,233.865433 217.019318,233.693832 217.005508,233.263519 
	C217.010529,233.004791 217.002136,233.037979 217.482681,233.048828 
	C274.621399,233.071426 331.279602,233.083160 387.937775,233.094894 
	C387.937775,233.094894 387.962677,233.591293 387.936432,233.838776 
	C387.480530,234.044113 387.050842,234.001999 385.836548,233.993500 
	C329.053589,234.030426 273.055267,234.033722 217.056931,234.037018 
z"/>
<path fill="#F2E366" opacity="1.000000" stroke="none" 
	d="
M387.625000,232.825592 
	C331.279602,233.083160 274.621399,233.071426 217.497314,233.058197 
	C218.771362,232.707581 220.511002,232.055145 222.251297,232.053391 
	C275.804749,231.999008 329.358215,232.004028 382.911713,232.030899 
	C384.378662,232.031631 385.845398,232.373505 387.625000,232.825592 
z"/>
<path fill="#F2E366" opacity="1.000000" stroke="none" 
	d="
M217.357574,405.103088 
	C273.384521,404.864075 329.712280,404.910400 386.501343,405.025726 
	C385.035400,405.396912 383.108337,405.961365 381.180786,405.963135 
	C328.465393,406.011719 275.749969,406.008911 223.034546,405.977753 
	C221.242371,405.976685 219.450424,405.593506 217.357574,405.103088 
z"/>
<path fill="#2C2801" opacity="1.000000" stroke="none" 
	d="
M216.972000,234.281586 
	C273.055267,234.033722 329.053589,234.030426 385.518677,234.060745 
	C385.995209,234.270309 386.005035,234.446259 385.541962,234.846161 
	C329.700104,235.077774 274.331177,235.085464 218.783264,235.208771 
	C218.379593,235.504578 218.196686,235.720245 218.039001,235.991760 
	C218.022446,236.012161 217.991852,236.054871 217.991852,236.054871 
	C217.991852,236.054871 217.543350,236.015518 217.319824,235.988434 
	C217.035294,235.800476 216.974289,235.639603 216.806885,235.243927 
	C216.762695,234.848145 216.824890,234.687134 216.972000,234.281586 
z"/>
<path fill="#3C3A15" opacity="1.000000" stroke="none" 
	d="
M708.977112,388.979980 
	C707.629517,389.656616 706.316895,390.816589 704.927673,390.916840 
	C701.165405,391.188385 697.370667,391.009918 693.246643,391.009918 
	C693.246643,373.957947 693.246643,357.307190 693.246643,340.409912 
	C698.315430,340.409912 703.368103,340.409912 708.566467,340.734985 
	C708.712158,341.060089 708.423828,341.025604 707.995056,341.023254 
	C704.734497,341.024109 701.886169,341.222382 699.074890,340.983734 
	C695.094604,340.645844 693.848755,342.302673 693.934265,346.181946 
	C694.143555,355.672180 694.002502,365.170105 694.002502,374.664948 
	C694.002502,388.946533 694.002441,388.946533 708.549805,388.960266 
	C708.692383,388.944733 708.977112,388.980011 708.977112,388.979980 
z"/>
<path fill="#F2E366" opacity="1.000000" stroke="none" 
	d="
M708.856689,341.046204 
	C709.324829,342.278137 709.923950,343.522644 709.929810,344.769928 
	C709.994202,358.485565 709.974548,372.201721 709.942444,385.917603 
	C709.940552,386.719330 709.635437,387.520325 709.224243,388.650818 
	C708.977112,388.980011 708.692383,388.944733 708.669922,388.514099 
	C708.572937,372.397522 708.498413,356.711578 708.423828,341.025604 
	C708.423828,341.025604 708.712158,341.060089 708.856689,341.046204 
z"/>
<path fill="#F2E366" opacity="1.000000" stroke="none" 
	d="
M599.672852,341.463623 
	C599.971924,356.751312 600.028198,372.357452 600.000854,388.410828 
	C599.639832,388.267975 599.117981,387.676788 599.120728,387.088013 
	C599.190552,371.985901 599.315063,356.884003 599.672852,341.463623 
z"/>
<path fill="#F2E366" opacity="1.000000" stroke="none" 
	d="
M788.117188,373.086304 
	C787.273865,372.528015 786.673523,371.640320 785.535156,369.956879 
	C798.227905,369.956879 810.078003,369.956879 822.374390,370.007843 
	C819.112854,370.420807 815.410645,371.003967 811.696289,371.094818 
	C805.587341,371.244263 799.467224,370.952118 793.359314,371.119812 
	C791.679199,371.165955 790.025818,372.184509 788.117188,373.086304 
z"/>
<path fill="#F2E366" opacity="1.000000" stroke="none" 
	d="
M450.717224,309.927765 
	C442.371063,310.169342 433.711426,310.128784 424.604553,310.033051 
	C432.906128,309.867126 441.654968,309.756378 450.717224,309.927765 
z"/>
<path fill="#EEDD46" opacity="1.000000" stroke="none" 
	d="
M462.267609,349.928284 
	C456.711609,358.245300 448.500183,357.152557 440.213196,357.340607 
	C440.213196,346.512115 440.213196,335.995605 440.213196,324.956512 
	C447.532745,324.525421 455.036713,323.793243 460.471222,329.904419 
	C465.636108,335.712341 464.967743,342.702454 462.267609,349.928284 
z"/>
<path fill="#EEDD46" opacity="1.000000" stroke="none" 
	d="
M789.451660,360.776855 
	C786.875427,360.856689 785.227722,360.633301 786.432068,357.758514 
	C788.139893,353.681732 793.241272,351.340942 799.190491,352.046661 
	C803.894348,352.604614 806.169739,354.910706 807.202515,360.777740 
	C801.364807,360.777740 795.632019,360.777740 789.451660,360.776855 
z"/>
<path fill="#EEDD46" opacity="1.000000" stroke="none" 
	d="
M572.078003,362.454285 
	C572.531555,372.980194 567.410767,378.905243 559.393433,377.617401 
	C553.275208,376.634583 549.731384,372.025085 549.742615,365.064392 
	C549.753967,358.046112 553.386292,353.465576 559.517334,352.737823 
	C566.036621,351.964050 570.002625,354.911041 572.078003,362.454285 
z"/>
<path fill="#31332D" opacity="1.000000" stroke="none" 
	d="
M218.962219,235.093155 
	C274.331177,235.085464 329.700104,235.077774 385.537415,235.110443 
	C386.008972,288.979858 385.948364,342.809082 386.120392,396.637573 
	C386.136475,401.673370 384.756012,403.154510 379.663055,403.136993 
	C328.001099,402.958984 276.338287,403.028687 224.675735,403.023071 
	C218.018204,403.022369 218.001053,403.006927 218.000351,396.466949 
	C217.994568,343.304535 217.995697,290.142120 217.993286,236.517303 
	C217.991852,236.054871 218.022446,236.012161 218.211929,235.869415 
	C218.623001,235.546173 218.809937,235.335007 218.962219,235.093155 
M331.009308,349.566803 
	C331.328186,349.754517 331.647064,349.942230 331.953918,350.057007 
	C331.953918,350.057007 331.882019,350.074066 332.200500,350.599487 
	C332.747833,350.857697 333.295166,351.115936 333.862549,351.221039 
	C333.862549,351.221039 333.708130,351.218384 333.984985,351.858643 
	C335.628479,352.793335 337.271973,353.728058 339.581268,354.974304 
	C341.060425,355.689606 342.539581,356.404877 344.173279,357.777924 
	C348.173340,359.769012 352.173370,361.760101 356.239594,363.762909 
	C356.239594,363.762909 356.251465,363.829041 356.130524,364.633301 
	C356.125977,367.780731 356.121429,370.928192 356.081055,374.077148 
	C356.081055,374.077148 356.074768,374.112518 355.292145,374.075287 
	C347.781921,376.589691 340.568481,376.264252 335.466370,369.651276 
	C332.502228,365.809387 330.286346,366.000702 326.959106,368.461823 
	C325.099487,369.837372 322.877045,370.724579 321.029205,372.112823 
	C320.356995,372.617767 320.297272,373.938049 319.760559,375.428986 
	C320.981537,377.309265 322.202484,379.189575 323.630249,381.520416 
	C324.023529,381.808167 324.416809,382.095947 324.884155,382.186310 
	C324.884155,382.186310 324.682587,382.124603 324.852173,382.720978 
	C325.201324,382.917419 325.550446,383.113861 325.804718,383.158813 
	C325.804718,383.158813 325.660797,383.264862 325.959045,383.798187 
	C326.625000,384.237396 327.290985,384.676636 327.951721,385.043457 
	C327.951721,385.043457 327.880157,385.055420 328.269501,385.608765 
	C329.488617,386.181366 330.707733,386.753967 331.880005,387.170624 
	C331.880005,387.170624 331.728790,387.231140 332.097229,387.750427 
	C332.695526,387.953125 333.293823,388.155823 333.884216,388.215179 
	C333.884216,388.215179 333.742798,388.239807 334.269531,388.731415 
	C340.467407,389.423584 346.665314,390.115753 353.489014,390.968475 
	C353.701050,390.930817 353.913086,390.893158 354.855560,390.757843 
	C357.947662,389.530640 361.039764,388.303436 364.036713,387.042542 
	C364.036713,387.042542 364.006592,387.138916 364.597626,387.044373 
	C364.844696,386.754517 365.091766,386.464661 365.114258,386.206512 
	C365.114258,386.206512 365.160706,386.428497 365.771576,386.280762 
	C366.225616,385.874817 366.679626,385.468842 367.035919,385.033508 
	C367.035919,385.033508 367.009735,385.132141 367.560974,384.969604 
	C367.780792,384.665527 368.000610,384.361450 368.058258,384.059753 
	C368.058258,384.059753 368.066467,384.221710 368.603088,383.995789 
	C368.801086,383.673553 368.999084,383.351288 369.031036,383.032288 
	C369.031036,383.032288 369.037354,383.198303 369.572205,382.997101 
	C369.765564,382.678894 369.958954,382.360657 370.068939,382.056488 
	C370.068939,382.056488 370.088989,382.138641 370.610718,381.798950 
	C370.854034,381.236633 371.097382,380.674347 371.216339,380.176636 
	C371.216339,380.176636 371.296082,380.291901 371.820709,379.953430 
	C372.062988,379.380981 372.305298,378.808502 372.428528,378.187805 
	C372.428528,378.187805 372.405212,378.314087 372.905945,377.795715 
	C373.590424,373.875519 374.274902,369.955292 374.900391,365.319397 
	C374.444580,363.620148 373.988770,361.920929 373.684113,360.215729 
	C373.684113,360.215729 373.663452,360.365570 373.792175,359.622009 
	C373.140442,358.477753 372.488678,357.333496 371.819366,355.482574 
	C369.737518,351.962250 367.686340,348.404907 362.892426,348.107483 
	C362.892426,348.107483 362.867432,348.081573 362.790253,347.403107 
	C356.147919,344.326355 349.505615,341.249603 342.884888,338.099823 
	C342.884888,338.099823 342.821533,338.141998 342.810944,337.393311 
	C342.490814,334.161865 342.170685,330.930420 342.453766,327.244843 
	C349.071777,323.888000 353.843781,327.170227 357.988281,331.875488 
	C360.373413,330.330811 362.471130,329.025635 364.513733,327.639130 
	C369.977325,323.930542 369.662659,320.126831 363.669464,316.969482 
	C363.113159,316.676361 362.606140,316.289612 361.874298,315.299316 
	C360.651489,314.701996 359.428680,314.104645 358.174347,313.641937 
	C358.174347,313.641937 358.312408,313.648804 357.776794,313.164948 
	C355.205200,312.598877 352.633606,312.032776 349.235443,311.209686 
	C347.806396,311.285522 346.377380,311.361359 344.185699,311.364563 
	C340.759949,312.562042 337.334198,313.759521 333.979340,314.981903 
	C333.979340,314.981903 334.002533,314.910461 333.423462,315.011749 
	C333.175354,315.295074 332.927246,315.578369 332.880798,315.795135 
	C332.880798,315.795135 332.801422,315.598206 332.110382,315.824280 
	C330.777527,316.715515 328.974304,317.308441 328.188812,318.546875 
	C323.402679,326.092560 321.004028,336.961365 328.006836,346.004242 
	C328.006836,346.004242 327.961761,346.011444 328.106842,346.539368 
	C328.396576,346.747498 328.686340,346.955627 328.977753,347.019409 
	C328.977753,347.019409 328.833374,347.019806 329.010468,347.571808 
	C329.317352,347.792511 329.624237,348.013214 329.931946,348.067444 
	C329.931946,348.067444 329.765564,348.073303 330.006744,348.600555 
	C330.328583,348.800446 330.650421,349.000366 330.964508,349.031342 
	C330.964508,349.031342 330.795746,349.042419 331.009308,349.566803 
M309.732330,311.442139 
	C304.822754,310.428894 299.875763,308.346527 294.409698,312.447662 
	C294.275085,314.256226 294.030212,316.064331 294.023071,317.873383 
	C293.957367,334.507751 293.883057,351.142426 293.933533,367.776642 
	C293.945190,371.623840 293.042908,375.353760 289.165985,376.074432 
	C286.119781,376.640656 282.537903,375.566559 279.488190,374.431030 
	C277.494507,373.688721 276.026398,371.534851 274.324646,370.014801 
	C270.971436,371.890717 267.691010,373.480652 264.731689,375.533539 
	C263.863159,376.136017 263.207184,378.875244 263.637787,379.240875 
	C268.716675,383.553741 271.728790,390.728485 279.559631,391.292816 
	C282.130493,391.478119 284.735779,391.129211 287.317627,391.227386 
	C298.013367,391.634155 305.972076,386.066956 309.770721,375.673401 
	C310.506958,373.048309 311.851044,370.430115 311.880768,367.797028 
	C312.073425,350.733673 312.029694,333.666656 311.891479,316.602203 
	C311.879547,315.130096 310.621155,313.668091 309.811707,312.190826 
	C309.811707,312.190826 309.803436,312.060577 309.732330,311.442139 
z"/>
<path fill="#3C3A15" opacity="1.000000" stroke="none" 
	d="
M218.783264,235.208771 
	C218.809937,235.335007 218.623001,235.546173 218.228485,235.849030 
	C218.196686,235.720245 218.379593,235.504578 218.783264,235.208771 
z"/>
<path fill="#38382A" opacity="1.000000" stroke="none" 
	d="
M707.995056,341.023254 
	C708.498413,356.711578 708.572937,372.397522 708.527344,388.529633 
	C694.002441,388.946533 694.002502,388.946533 694.002502,374.664948 
	C694.002502,365.170105 694.143555,355.672180 693.934265,346.181946 
	C693.848755,342.302673 695.094604,340.645844 699.074890,340.983734 
	C701.886169,341.222382 704.734497,341.024109 707.995056,341.023254 
z"/>
<path fill="#EEDD42" opacity="1.000000" stroke="none" 
	d="
M362.076233,315.946320 
	C362.606140,316.289612 363.113159,316.676361 363.669464,316.969482 
	C369.662659,320.126831 369.977325,323.930542 364.513733,327.639130 
	C362.471130,329.025635 360.373413,330.330811 357.988281,331.875488 
	C353.843781,327.170227 349.071777,323.888000 341.822632,327.580444 
	C338.276337,331.876007 338.866852,335.277130 342.821533,338.141998 
	C342.821533,338.141998 342.884888,338.099823 343.076355,338.405090 
	C349.801025,341.834076 356.334229,344.957825 362.867432,348.081573 
	C362.867432,348.081573 362.892426,348.107483 363.120728,348.366028 
	C365.883942,351.186523 368.418854,353.748444 370.989838,356.631104 
	C371.522736,357.560974 372.019562,358.170135 372.533905,358.779907 
	C372.551392,358.780548 372.585938,358.783752 372.452087,359.202576 
	C372.347229,365.852264 372.376221,372.083191 372.405212,378.314087 
	C372.405212,378.314087 372.428528,378.187805 372.171143,378.341461 
	C371.707886,379.094055 371.501984,379.692963 371.296082,380.291901 
	C371.296082,380.291901 371.216339,380.176636 371.000580,380.302765 
	C370.552887,380.998810 370.320923,381.568726 370.088989,382.138641 
	C370.088989,382.138641 370.068939,382.056488 369.874115,382.188354 
	C369.465332,382.612915 369.251343,382.905609 369.037354,383.198303 
	C369.037354,383.198303 369.031036,383.032288 368.873260,383.175598 
	C368.499146,383.619843 368.282806,383.920776 368.066467,384.221710 
	C368.066467,384.221710 368.058258,384.059753 367.892578,384.184296 
	C367.487823,384.583252 367.248779,384.857697 367.009735,385.132141 
	C367.009735,385.132141 367.035919,385.033508 366.763855,385.087036 
	C366.048096,385.569885 365.604401,385.999207 365.160706,386.428528 
	C365.160706,386.428497 365.114258,386.206512 364.958740,386.283600 
	C364.537689,386.620087 364.272125,386.879517 364.006592,387.138916 
	C364.006592,387.138916 364.036713,387.042542 363.686737,387.046997 
	C360.266235,388.319489 357.195679,389.587494 354.125153,390.855499 
	C353.913086,390.893158 353.701050,390.930817 352.840240,390.683929 
	C346.041901,389.679535 339.892365,388.959656 333.742798,388.239807 
	C333.742798,388.239807 333.884216,388.215179 333.714996,388.003052 
	C332.940125,387.604340 332.334442,387.417725 331.728790,387.231140 
	C331.728790,387.231140 331.880005,387.170624 331.730713,386.943726 
	C330.347656,386.163055 329.113922,385.609253 327.880157,385.055420 
	C327.880157,385.055420 327.951721,385.043457 327.892670,384.746002 
	C327.109344,384.053986 326.385071,383.659424 325.660797,383.264862 
	C325.660797,383.264862 325.804718,383.158813 325.712341,382.977600 
	C325.307526,382.572479 324.995056,382.348541 324.682587,382.124603 
	C324.682587,382.124603 324.884155,382.186310 324.778809,382.029327 
	C324.256775,381.604858 323.840118,381.337372 323.423431,381.069885 
	C322.202484,379.189575 320.981537,377.309265 320.197205,375.064331 
	C324.237885,372.470886 327.841949,370.242096 331.392822,368.046204 
	C341.161377,377.759888 348.148163,379.438782 356.074768,374.112518 
	C356.074768,374.112518 356.081055,374.077148 356.411194,373.918060 
	C359.039734,370.327576 360.608032,366.932159 356.251465,363.829041 
	C356.251465,363.829041 356.239594,363.762909 356.027313,363.478790 
	C351.882935,361.169830 347.950836,359.144989 344.018768,357.120178 
	C342.539581,356.404877 341.060425,355.689606 339.157715,354.518555 
	C337.058807,353.114624 335.383453,352.166504 333.708130,351.218384 
	C333.708130,351.218384 333.862549,351.221039 333.705566,351.017029 
	C332.993042,350.566681 332.437531,350.320374 331.882019,350.074066 
	C331.882019,350.074066 331.953918,350.057007 331.816528,349.861877 
	C331.384705,349.458649 331.090210,349.250549 330.795746,349.042419 
	C330.795746,349.042419 330.964508,349.031342 330.819336,348.876221 
	C330.371307,348.505157 330.068451,348.289215 329.765564,348.073303 
	C329.765564,348.073303 329.931946,348.067444 329.804321,347.901001 
	C329.395630,347.496277 329.114502,347.258026 328.833374,347.019806 
	C328.833374,347.019806 328.977753,347.019409 328.854126,346.860535 
	C328.474274,346.471588 328.218018,346.241516 327.961761,346.011444 
	C327.961761,346.011444 328.006836,346.004242 327.984680,345.634644 
	C325.789490,339.141846 323.360443,332.904358 326.206299,326.479065 
	C327.909821,322.632935 330.570801,319.210876 332.801422,315.598206 
	C332.801422,315.598206 332.880798,315.795135 333.041931,315.729919 
	C333.469574,315.413300 333.736053,315.161896 334.002533,314.910461 
	C334.002533,314.910461 333.979340,314.981903 334.344910,314.972595 
	C338.123077,313.787933 341.535706,312.612579 344.948334,311.437195 
	C346.377380,311.361359 347.806396,311.285522 349.798553,311.638672 
	C353.011902,312.594727 355.662170,313.121765 358.312408,313.648804 
	C358.312408,313.648804 358.174347,313.641937 358.310364,313.909760 
	C359.656342,314.767151 360.866302,315.356720 362.076233,315.946320 
z"/>
<path fill="#EEDD46" opacity="1.000000" stroke="none" 
	d="
M309.092468,375.899689 
	C305.972076,386.066956 298.013367,391.634155 287.317627,391.227386 
	C284.735779,391.129211 282.130493,391.478119 279.559631,391.292816 
	C271.728790,390.728485 268.716675,383.553741 263.637787,379.240875 
	C263.207184,378.875244 263.863159,376.136017 264.731689,375.533539 
	C267.691010,373.480652 270.971436,371.890717 274.324646,370.014801 
	C276.026398,371.534851 277.494507,373.688721 279.488190,374.431030 
	C282.537903,375.566559 286.119781,376.640656 289.165985,376.074432 
	C293.042908,375.353760 293.945190,371.623840 293.933533,367.776642 
	C293.883057,351.142426 293.957367,334.507751 294.023071,317.873383 
	C294.030212,316.064331 294.275085,314.256226 295.215057,312.273926 
	C300.614746,312.087006 305.209106,312.073792 309.803436,312.060577 
	C309.803436,312.060577 309.811707,312.190826 309.896210,312.643433 
	C310.020050,322.256287 310.205872,331.418823 310.062073,340.576233 
	C309.877197,352.352905 309.427887,364.125397 309.092468,375.899689 
z"/>
<path fill="#3C3A15" opacity="1.000000" stroke="none" 
	d="
M309.431580,375.786560 
	C309.427887,364.125397 309.877197,352.352905 310.062073,340.576233 
	C310.205872,331.418823 310.020050,322.256287 309.961243,312.648682 
	C310.621155,313.668091 311.879547,315.130096 311.891479,316.602203 
	C312.029694,333.666656 312.073425,350.733673 311.880768,367.797028 
	C311.851044,370.430115 310.506958,373.048309 309.431580,375.786560 
z"/>
<path fill="#2C2801" opacity="1.000000" stroke="none" 
	d="
M355.683472,374.093903 
	C348.148163,379.438782 341.161377,377.759888 331.392822,368.046204 
	C327.841949,370.242096 324.237885,372.470886 320.295959,374.793030 
	C320.297272,373.938049 320.356995,372.617767 321.029205,372.112823 
	C322.877045,370.724579 325.099487,369.837372 326.959106,368.461823 
	C330.286346,366.000702 332.502228,365.809387 335.466370,369.651276 
	C340.568481,376.264252 347.781921,376.589691 355.683472,374.093903 
z"/>
<path fill="#F2E366" opacity="1.000000" stroke="none" 
	d="
M332.455902,315.711243 
	C330.570801,319.210876 327.909821,322.632935 326.206299,326.479065 
	C323.360443,332.904358 325.789490,339.141846 327.971588,345.653381 
	C321.004028,336.961365 323.402679,326.092560 328.188812,318.546875 
	C328.974304,317.308441 330.777527,316.715515 332.455902,315.711243 
z"/>
<path fill="#2C2801" opacity="1.000000" stroke="none" 
	d="
M362.828857,347.742340 
	C356.334229,344.957825 349.801025,341.834076 343.065552,338.441589 
	C349.505615,341.249603 356.147919,344.326355 362.828857,347.742340 
z"/>
<path fill="#F2E366" opacity="1.000000" stroke="none" 
	d="
M372.655579,378.054901 
	C372.376221,372.083191 372.347229,365.852264 372.609253,359.389435 
	C373.154663,359.560181 373.409058,359.962860 373.663452,360.365570 
	C373.663452,360.365570 373.684113,360.215729 373.674500,360.593689 
	C374.096344,362.659454 374.527863,364.347290 374.959351,366.035095 
	C374.274902,369.955292 373.590424,373.875519 372.655579,378.054901 
z"/>
<path fill="#F2E366" opacity="1.000000" stroke="none" 
	d="
M334.006165,388.485596 
	C339.892365,388.959656 346.041901,389.679535 352.527344,390.603638 
	C346.665314,390.115753 340.467407,389.423584 334.006165,388.485596 
z"/>
<path fill="#3C3A15" opacity="1.000000" stroke="none" 
	d="
M309.767883,311.751343 
	C305.209106,312.073792 300.614746,312.087006 295.574097,312.026611 
	C299.875763,308.346527 304.822754,310.428894 309.767883,311.751343 
z"/>
<path fill="#2C2801" opacity="1.000000" stroke="none" 
	d="
M344.096008,357.449036 
	C347.950836,359.144989 351.882935,361.169830 355.994232,363.472931 
	C352.173370,361.760101 348.173340,359.769012 344.096008,357.449036 
z"/>
<path fill="#2C2801" opacity="1.000000" stroke="none" 
	d="
M370.953796,356.310364 
	C368.418854,353.748444 365.883942,351.186523 363.137085,348.373474 
	C367.686340,348.404907 369.737518,351.962250 371.793762,355.860840 
	C371.768158,356.239105 371.702271,356.301453 371.515137,356.303375 
	C371.328033,356.305298 370.953796,356.310364 370.953796,356.310364 
z"/>
<path fill="#2C2801" opacity="1.000000" stroke="none" 
	d="
M342.816223,337.767639 
	C338.866852,335.277130 338.276337,331.876007 341.520996,327.807526 
	C342.170685,330.930420 342.490814,334.161865 342.816223,337.767639 
z"/>
<path fill="#2C2801" opacity="1.000000" stroke="none" 
	d="
M356.190979,364.231171 
	C360.608032,366.932159 359.039734,370.327576 356.429077,373.917297 
	C356.121429,370.928192 356.125977,367.780731 356.190979,364.231171 
z"/>
<path fill="#F2E366" opacity="1.000000" stroke="none" 
	d="
M344.567017,311.400879 
	C341.535706,312.612579 338.123077,313.787933 334.309448,314.960144 
	C337.334198,313.759521 340.759949,312.562042 344.567017,311.400879 
z"/>
<path fill="#F2E366" opacity="1.000000" stroke="none" 
	d="
M354.490356,390.806671 
	C357.195679,389.587494 360.266235,388.319489 363.734314,387.063873 
	C361.039764,388.303436 357.947662,389.530640 354.490356,390.806671 
z"/>
<path fill="#F2E366" opacity="1.000000" stroke="none" 
	d="
M358.044617,313.406860 
	C355.662170,313.121765 353.011902,312.594727 350.211853,311.767212 
	C352.633606,312.032776 355.205200,312.598877 358.044617,313.406860 
z"/>
<path fill="#F2E366" opacity="1.000000" stroke="none" 
	d="
M333.846558,351.538513 
	C335.383453,352.166504 337.058807,353.114624 338.824768,354.362793 
	C337.271973,353.728058 335.628479,352.793335 333.846558,351.538513 
z"/>
<path fill="#2C2801" opacity="1.000000" stroke="none" 
	d="
M374.929871,365.677246 
	C374.527863,364.347290 374.096344,362.659454 373.598907,360.596680 
	C373.988770,361.920929 374.444580,363.620148 374.929871,365.677246 
z"/>
<path fill="#2C2801" opacity="1.000000" stroke="none" 
	d="
M373.727814,359.993774 
	C373.409058,359.962860 373.154663,359.560181 372.743103,358.970642 
	C372.585938,358.783752 372.551392,358.780548 372.463196,358.457397 
	C372.150787,357.523285 371.926544,356.912354 371.702271,356.301453 
	C371.702271,356.301453 371.768158,356.239105 371.802551,356.214172 
	C372.488678,357.333496 373.140442,358.477753 373.727814,359.993774 
z"/>
<path fill="#F2E366" opacity="1.000000" stroke="none" 
	d="
M361.975281,315.622803 
	C360.866302,315.356720 359.656342,314.767151 358.326111,313.842438 
	C359.428680,314.104645 360.651489,314.701996 361.975281,315.622803 
z"/>
<path fill="#F2E366" opacity="1.000000" stroke="none" 
	d="
M328.074829,385.332092 
	C329.113922,385.609253 330.347656,386.163055 331.754150,387.021729 
	C330.707733,386.753967 329.488617,386.181366 328.074829,385.332092 
z"/>
<path fill="#F2E366" opacity="1.000000" stroke="none" 
	d="
M325.809937,383.531525 
	C326.385071,383.659424 327.109344,384.053986 327.895264,384.782196 
	C327.290985,384.676636 326.625000,384.237396 325.809937,383.531525 
z"/>
<path fill="#F2E366" opacity="1.000000" stroke="none" 
	d="
M331.913025,387.490784 
	C332.334442,387.417725 332.940125,387.604340 333.718933,388.074707 
	C333.293823,388.155823 332.695526,387.953125 331.913025,387.490784 
z"/>
<path fill="#F2E366" opacity="1.000000" stroke="none" 
	d="
M371.558411,380.122681 
	C371.501984,379.692963 371.707886,379.094055 372.230682,378.365601 
	C372.305298,378.808502 372.062988,379.380981 371.558411,380.122681 
z"/>
<path fill="#F2E366" opacity="1.000000" stroke="none" 
	d="
M370.349854,381.968811 
	C370.320923,381.568726 370.552887,380.998810 371.062744,380.270447 
	C371.097382,380.674347 370.854034,381.236633 370.349854,381.968811 
z"/>
<path fill="#F2E366" opacity="1.000000" stroke="none" 
	d="
M323.526855,381.295166 
	C323.840118,381.337372 324.256775,381.604858 324.741760,382.128021 
	C324.416809,382.095947 324.023529,381.808167 323.526855,381.295166 
z"/>
<path fill="#F2E366" opacity="1.000000" stroke="none" 
	d="
M332.041260,350.336792 
	C332.437531,350.320374 332.993042,350.566681 333.695526,351.093567 
	C333.295166,351.115936 332.747833,350.857697 332.041260,350.336792 
z"/>
<path fill="#F2E366" opacity="1.000000" stroke="none" 
	d="
M365.466156,386.354645 
	C365.604401,385.999207 366.048096,385.569885 366.812683,385.101715 
	C366.679626,385.468842 366.225616,385.874817 365.466156,386.354645 
z"/>
<path fill="#F2E366" opacity="1.000000" stroke="none" 
	d="
M369.304779,383.097717 
	C369.251343,382.905609 369.465332,382.612915 369.915802,382.181335 
	C369.958954,382.360657 369.765564,382.678894 369.304779,383.097717 
z"/>
<path fill="#F2E366" opacity="1.000000" stroke="none" 
	d="
M364.302124,387.091644 
	C364.272125,386.879517 364.537689,386.620087 365.071045,386.267761 
	C365.091766,386.464661 364.844696,386.754517 364.302124,387.091644 
z"/>
<path fill="#F2E366" opacity="1.000000" stroke="none" 
	d="
M367.285339,385.050873 
	C367.248779,384.857697 367.487823,384.583252 367.973633,384.183105 
	C368.000610,384.361450 367.780792,384.665527 367.285339,385.050873 
z"/>
<path fill="#F2E366" opacity="1.000000" stroke="none" 
	d="
M368.334778,384.108765 
	C368.282806,383.920776 368.499146,383.619843 368.956299,383.173950 
	C368.999084,383.351288 368.801086,383.673553 368.334778,384.108765 
z"/>
<path fill="#F2E366" opacity="1.000000" stroke="none" 
	d="
M324.767395,382.422791 
	C324.995056,382.348541 325.307526,382.572479 325.759796,383.053345 
	C325.550446,383.113861 325.201324,382.917419 324.767395,382.422791 
z"/>
<path fill="#F2E366" opacity="1.000000" stroke="none" 
	d="
M328.034302,346.275391 
	C328.218018,346.241516 328.474274,346.471588 328.853302,346.932678 
	C328.686340,346.955627 328.396576,346.747498 328.034302,346.275391 
z"/>
<path fill="#F2E366" opacity="1.000000" stroke="none" 
	d="
M333.713013,314.961121 
	C333.736053,315.161896 333.469574,315.413300 332.941101,315.763184 
	C332.927246,315.578369 333.175354,315.295074 333.713013,314.961121 
z"/>
<path fill="#F2E366" opacity="1.000000" stroke="none" 
	d="
M328.921936,347.295807 
	C329.114502,347.258026 329.395630,347.496277 329.803894,347.984222 
	C329.624237,348.013214 329.317352,347.792511 328.921936,347.295807 
z"/>
<path fill="#F2E366" opacity="1.000000" stroke="none" 
	d="
M329.886169,348.336914 
	C330.068451,348.289215 330.371307,348.505157 330.823212,348.960693 
	C330.650421,349.000366 330.328583,348.800446 329.886169,348.336914 
z"/>
<path fill="#F2E366" opacity="1.000000" stroke="none" 
	d="
M330.902527,349.304626 
	C331.090210,349.250549 331.384705,349.458649 331.822571,349.898376 
	C331.647064,349.942230 331.328186,349.754517 330.902527,349.304626 
z"/>
<path fill="#F2E366" opacity="1.000000" stroke="none" 
	d="
M371.515167,356.303375 
	C371.926544,356.912354 372.150787,357.523285 372.445740,358.456757 
	C372.019562,358.170135 371.522736,357.560974 370.989838,356.631104 
	C370.953796,356.310364 371.328033,356.305298 371.515167,356.303375 
z"/>
</svg>